<?xml version="1.0" encoding="utf-8"?>
<!-- Generator: Adobe Illustrator 15.0.2, SVG Export Plug-In  -->
<!DOCTYPE svg PUBLIC "-//W3C//DTD SVG 1.1//EN" "http://www.w3.org/Graphics/SVG/1.1/DTD/svg11.dtd" [
	<!ENTITY ns_flows "http://ns.adobe.com/Flows/1.0/">
]>
<svg version="1.1"
	 xmlns="http://www.w3.org/2000/svg" xmlns:xlink="http://www.w3.org/1999/xlink" xmlns:a="http://ns.adobe.com/AdobeSVGViewerExtensions/3.0/"
	 x="0px" y="0px" width="193px" height="131px" viewBox="0 0 193 131" overflow="visible" enable-background="new 0 0 193 131"
	 xml:space="preserve">
<defs>
</defs>
<rect x="1.5" y="1.5" fill="#F1592C" stroke="#FFFFFF" stroke-width="3" stroke-linecap="round" stroke-linejoin="round" stroke-miterlimit="10" width="190.497" height="127.969"/>
<path fill-rule="evenodd" clip-rule="evenodd" fill="#FFFFFF" d="M123.988,53.107c-6.888,8.541-6.609,27.592,0,36.217
	c-1.96,0-3.921,0-5.881,0c-8.595-7.5-8.728-28.758,0-36.217C120.067,53.107,122.028,53.107,123.988,53.107z"/>
<path fill-rule="evenodd" clip-rule="evenodd" fill="#FFFFFF" d="M32.363,53.727c2.271,0,6.81,0,6.81,0v34.668c0,0-4.643,0-6.81,0
	C32.363,76.838,32.363,65.283,32.363,53.727z"/>
<path fill-rule="evenodd" clip-rule="evenodd" fill="#FFFFFF" d="M69.199,53.727c0,11.557,0,23.111,0,34.668c-2.27,0-6.81,0-6.81,0
	l-0.115-34.668C62.274,53.727,67.032,53.727,69.199,53.727z"/>
<path fill-rule="evenodd" clip-rule="evenodd" fill="#FFFFFF" d="M137.918,53.727c0,11.557,0,23.111,0,34.668c-2.27,0-6.81,0-6.81,0
	V53.727C131.108,53.727,135.751,53.727,137.918,53.727z"/>
<polygon fill-rule="evenodd" clip-rule="evenodd" fill="#FFFFFF" points="89.629,57.441 81.891,84.68 76.009,84.68 83.748,57.441 
	"/>
<polygon fill-rule="evenodd" clip-rule="evenodd" fill="#FFFFFF" points="92.725,57.441 98.606,57.441 106.775,84.684 
	100.463,84.68 "/>
<polygon fill-rule="evenodd" clip-rule="evenodd" fill="#FFFFFF" points="161.134,60.846 161.134,67.965 148.442,71.369 
	161.134,75.395 161.134,82.514 140.394,74.156 140.394,68.895 "/>
<polygon fill-rule="evenodd" clip-rule="evenodd" fill="#FFFFFF" points="59.603,68.895 59.603,74.775 41.87,74.775 41.844,68.895 
	"/>
<path fill-rule="evenodd" clip-rule="evenodd" fill="#FFFFFF" d="M41.65,104.801c-1.135,0-3.405,0-3.405,0l-2.476-6.811v6.811
	h-2.786l0.309-11.143c0,0,1.857,0,2.786,0c0.999,2.404,3.095,7.119,3.095,7.119l0.039-7.119h2.438
	C41.65,93.658,41.65,101.086,41.65,104.801z"/>
<path fill-rule="evenodd" clip-rule="evenodd" fill="#FFFFFF" d="M59.294,104.801c-0.929,0-2.786,0-2.786,0l-0.619-2.166
	l-3.366,0.016l-0.658,2.15h-2.476l3.56-11.166l2.319,0.002C55.268,93.637,57.847,101.191,59.294,104.801z M53.103,100.467h2.167
	l-1.089-3.605L53.103,100.467z"/>
<path fill-rule="evenodd" clip-rule="evenodd" fill="#FFFFFF" d="M66.292,104.301l0.361-2.43c1.338,0.518,4.115,0.984,4.115-0.141
	c0-2.119-4.325-2.236-4.325-5.314c0-2.65,3.992-3.498,7.146-2.33l-0.358,2.129c0,0-3.938-1.244-3.938,0.408
	c0,1.02,4.197,1.674,4.197,5.27C73.491,104.541,70.126,105.604,66.292,104.301z"/>
<path fill-rule="evenodd" clip-rule="evenodd" fill="#FFFFFF" d="M89.939,104.801c-0.929,0-1.857,0-2.786,0c0-1.445,0-2.889,0-4.334
	c-0.722,0-2.459,0-2.459,0l-0.018,4.334h-2.939l0.038-11.143c0,0,2.179,0,2.901,0c0,1.547,0,3.094,0,4.643c0.826,0,2.477,0,2.477,0
	l0.039-4.627c0,0,2.024-0.016,2.747-0.016C89.939,97.371,89.939,101.086,89.939,104.801z"/>
<path fill-rule="evenodd" clip-rule="evenodd" fill="#FFFFFF" d="M103.868,104.801c-1.032,0-3.095,0-3.095,0l-3.096-11.143h2.786
	l2.167,7.738l2.167-7.738l2.244-0.023C107.041,93.635,104.8,101.09,103.868,104.801z"/>
<polygon fill-rule="evenodd" clip-rule="evenodd" fill="#FFFFFF" points="117.488,104.801 114.845,104.801 114.918,93.658 
	117.499,93.658 "/>
<path fill-rule="evenodd" clip-rule="evenodd" fill="#FFFFFF" d="M132.346,104.801h-5.903l0.021-11.143c0,0,1.445,0,2.167,0
	c0,3.094,0,6.189,0,9.285c1.238,0,2.476,0,3.714,0C132.346,103.562,132.346,104.801,132.346,104.801z"/>
<path fill-rule="evenodd" clip-rule="evenodd" fill="#FFFFFF" d="M146.585,104.801c-2.167,0-6.145,0-6.145,0l-0.046-11.143h2.457
	l0.019,9.285c0,0,2.477,0,3.715,0C146.585,103.562,146.585,104.182,146.585,104.801z"/>
<path fill-rule="evenodd" clip-rule="evenodd" fill="#FFFFFF" d="M161.1,102.643c0,0,0.034,1.643,0.034,2.158
	c-2.27,0-4.541,0-6.81,0c0-3.715,0-11.143,0-11.143l6.504,0.031l-0.07,2.168l-3.987,0.029l0.029,2.104l3.784-0.035l-0.035,2.453
	l-3.727,0.023l-0.021,2.203L161.1,102.643z"/>
<path fill="#FFFFFF" d="M38.75,36.593h-6.245V22.327h5.551c0.966,0,1.799,0.115,2.5,0.348c0.7,0.23,1.221,0.544,1.561,0.938
	c0.653,0.734,0.979,1.564,0.979,2.489c0,1.116-0.354,1.946-1.061,2.49c-0.259,0.191-0.436,0.31-0.531,0.357s-0.265,0.126-0.51,0.234
	c0.884,0.191,1.588,0.589,2.112,1.194s0.786,1.356,0.786,2.255c0,0.994-0.34,1.871-1.021,2.633
	C42.07,36.151,40.696,36.593,38.75,36.593z M34.914,28.246h3.061c1.742,0,2.612-0.592,2.612-1.776c0-0.68-0.211-1.17-0.632-1.469
	c-0.422-0.299-1.075-0.449-1.959-0.449h-3.082V28.246z M34.914,34.368h3.775c0.884,0,1.562-0.139,2.031-0.418
	s0.704-0.807,0.704-1.582c0-1.266-1.014-1.897-3.041-1.897h-3.469V34.368z"/>
<path fill="#FFFFFF" d="M64.976,34.624c-1.442,1.408-3.225,2.112-5.347,2.112s-3.905-0.704-5.347-2.112
	c-1.442-1.408-2.164-3.164-2.164-5.266s0.721-3.857,2.164-5.266c1.442-1.408,3.225-2.112,5.347-2.112s3.905,0.704,5.347,2.112
	c1.442,1.408,2.164,3.164,2.164,5.266S66.418,33.216,64.976,34.624z M63.211,25.694c-0.973-1.006-2.167-1.51-3.582-1.51
	s-2.609,0.504-3.582,1.51c-0.973,1.008-1.459,2.229-1.459,3.664s0.486,2.656,1.459,3.663c0.972,1.007,2.167,1.511,3.582,1.511
	s2.609-0.504,3.582-1.511c0.972-1.007,1.459-2.228,1.459-3.663S64.183,26.702,63.211,25.694z"/>
<path fill="#FFFFFF" d="M87.691,26.96c0,2.354-1.028,3.837-3.082,4.449l3.735,5.184h-3.062l-3.408-4.795h-3.163v4.795h-2.409V22.327
	h5.307c2.177,0,3.735,0.367,4.673,1.102C87.222,24.164,87.691,25.341,87.691,26.96z M84.487,28.98
	c0.49-0.421,0.735-1.099,0.735-2.03s-0.252-1.572-0.755-1.918c-0.503-0.348-1.401-0.521-2.694-0.521h-3.061v5.103h3
	C83.072,29.613,83.997,29.402,84.487,28.98z"/>
<path fill="#FFFFFF" d="M107.978,22.327h2.409v14.266h-2.613l-8.082-10.408v10.408h-2.409V22.327h2.409l8.286,10.654V22.327z"/>
<path fill="#FFFFFF" d="M134.203,33.349l-1.428,3.244h-2.572l6.286-14.266h2.571l6.286,14.266h-2.572l-1.428-3.244H134.203z
	 M140.367,31.124l-2.592-5.879l-2.592,5.879H140.367z"/>
<path fill="#FFFFFF" d="M157.714,24.532v12.061h-2.408V24.532h-4.327v-2.205h11.062v2.205H157.714z"/>
</svg>
