<?xml version="1.0" encoding="utf-8"?>
<!-- Generator: Adobe Illustrator 15.0.2, SVG Export Plug-In  -->
<!DOCTYPE svg PUBLIC "-//W3C//DTD SVG 1.1//EN" "http://www.w3.org/Graphics/SVG/1.1/DTD/svg11.dtd" [
	<!ENTITY ns_flows "http://ns.adobe.com/Flows/1.0/">
]>
<svg version="1.1"
	 xmlns="http://www.w3.org/2000/svg" xmlns:xlink="http://www.w3.org/1999/xlink" xmlns:a="http://ns.adobe.com/AdobeSVGViewerExtensions/3.0/"
	 x="0px" y="0px" viewBox="0 0 171 131" overflow="visible" enable-background="new 0 0 171 131"
	 xml:space="preserve">
<defs>
</defs>
<g>
	<g>
		<path fill="#FFFFFF" d="M170.623,63.876c0,52.316-38.194,63.876-85.311,63.876C38.194,127.752,0,101.555,0,63.876
			C0,10.069,38.194,0,85.312,0C132.428,0,170.623,11.561,170.623,63.876z"/>
		<path fill="#FFFFFF" d="M5.13,130.623c21.732-14.962,12.962-30.377,12.962-30.377l34.563,14.75
			C52.655,114.996,35.096,132.336,5.13,130.623z"/>
	</g>
</g>
<path fill="#2AA8E0" d="M63.79,29.261c-0.969,0.431-2.011,0.721-3.104,0.852c1.115-0.669,1.974-1.728,2.376-2.99
	c-1.043,0.62-2.199,1.07-3.431,1.312c-0.987-1.05-2.392-1.707-3.946-1.707c-2.984,0-5.404,2.42-5.404,5.404
	c0,0.425,0.048,0.836,0.139,1.231c-4.491-0.225-8.472-2.376-11.138-5.647c-0.466,0.799-0.731,1.728-0.731,2.718
	c0,1.874,0.953,3.529,2.402,4.498c-0.885-0.027-1.718-0.271-2.447-0.677v0.068c0,2.618,1.864,4.803,4.335,5.299
	c-0.453,0.124-0.932,0.191-1.424,0.191c-0.347,0-0.687-0.035-1.016-0.099c0.688,2.147,2.683,3.708,5.048,3.754
	c-1.849,1.449-4.179,2.314-6.712,2.314c-0.436,0-0.866-0.027-1.288-0.076c2.391,1.532,5.232,2.427,8.286,2.427
	c9.939,0,15.375-8.233,15.375-15.375c0-0.234-0.006-0.467-0.015-0.7C62.148,31.297,63.063,30.346,63.79,29.261z"/>
<rect x="71.17" y="30.575" fill="#E6E7E8" width="64.21" height="13.712"/>
<rect x="36.706" y="55.967" fill="#E6E7E8" width="98.675" height="13.711"/>
<rect x="36.706" y="81.452" fill="#E6E7E8" width="98.675" height="13.711"/>
</svg>
