<?xml version="1.0" encoding="utf-8"?>
<!-- Generator: Adobe Illustrator 15.0.2, SVG Export Plug-In  -->
<!DOCTYPE svg PUBLIC "-//W3C//DTD SVG 1.1//EN" "http://www.w3.org/Graphics/SVG/1.1/DTD/svg11.dtd" [
	<!ENTITY ns_flows "http://ns.adobe.com/Flows/1.0/">
]>
<svg version="1.1"
	 xmlns="http://www.w3.org/2000/svg" xmlns:xlink="http://www.w3.org/1999/xlink" xmlns:a="http://ns.adobe.com/AdobeSVGViewerExtensions/3.0/"
	 x="0px" y="0px" width="21px" height="19px" viewBox="0 0 21 19" overflow="visible" enable-background="new 0 0 21 19"
	 xml:space="preserve">
<defs>
</defs>
<path fill="#FFFFFF" d="M15.534,11.612l-1.516,7.628l7.179-1.963l-1.937-1.937c0.842-1.493,1.335-3.209,1.334-5.042
	C20.593,4.609,15.985,0,10.298,0C4.61,0,0,4.609,0,10.297c-0.001,3.202,1.467,6.073,3.76,7.956l1.941-2.359
	c-1.618-1.334-2.645-3.338-2.645-5.597c0-2.005,0.808-3.806,2.121-5.12c1.316-1.315,3.117-2.122,5.122-2.122
	c2.004,0,3.804,0.807,5.12,2.122c1.313,1.313,2.12,3.115,2.121,5.12c0,0.982-0.205,1.911-0.557,2.763L15.534,11.612z"/>
</svg>
