<?xml version="1.0" encoding="utf-8"?>
<!-- Generator: Adobe Illustrator 15.0.2, SVG Export Plug-In  -->
<!DOCTYPE svg PUBLIC "-//W3C//DTD SVG 1.1//EN" "http://www.w3.org/Graphics/SVG/1.1/DTD/svg11.dtd" [
	<!ENTITY ns_flows "http://ns.adobe.com/Flows/1.0/">
]>
<svg version="1.1"
	 xmlns="http://www.w3.org/2000/svg" xmlns:xlink="http://www.w3.org/1999/xlink" xmlns:a="http://ns.adobe.com/AdobeSVGViewerExtensions/3.0/"
	 x="0px" y="0px" viewBox="0 0 166 138" overflow="visible" enable-background="new 0 0 166 138"
	 xml:space="preserve">
<defs>
</defs>
<path fill="#E6E7E8" d="M115.797,53.188c5.984,8.403,7.438,18.659,7.451,27.086c-0.006,9.434-1.873,16.686-1.903,16.829
	c-0.156,0.624-0.508,1.152-0.999,1.536l-7.518,5.86l-0.521,4.168l4.315,21.52c2.095,0.144,5.852,0.432,11.886,0.936
	c0,0,4.052-19.21,5.434-19.199c1.395,0,5.285,19.199,5.285,19.199c6.081-0.504,9.899-0.792,12.018-0.936l5.326-30.006
	c0.09-0.732,0.479-1.421,1.06-1.854l6.936-5.41l0.03-0.12c0.15-0.696,0.346-1.728,0.544-2.993c0.396-2.549,0.796-6.106,0.796-10.083
	c0.012-7.083-1.311-15.414-5.812-21.688c-4.518-6.213-12.06-10.928-26.19-10.988c-8.631,0.036-14.771,1.841-19.283,4.714
	C115.031,52.24,115.456,52.696,115.797,53.188z"/>
<path fill="#E6E7E8" d="M133.997,44.593c3.293,0,6.344-0.912,9.049-2.411c5.872-3.203,9.893-9.369,9.893-16.542
	c0-10.46-8.487-18.946-18.942-18.946c-10.473,0-18.954,8.486-18.954,18.946c0,7.173,4.016,13.339,9.887,16.542
	C127.635,43.681,130.688,44.593,133.997,44.593z"/>
<path fill="#E6E7E8" d="M5.822,58.238C1.316,64.619-0.018,73.118,0,80.405c0,6.25,0.951,11.54,1.4,13.657l6.703,4.762
	c0.64,0.444,1.054,1.151,1.156,1.943l5.326,29.419c2.101,0.144,5.86,0.432,11.898,0.936c0,0,4.04-19.21,5.428-19.199
	c1.384,0,5.286,19.199,5.286,19.199c6.074-0.504,9.887-0.792,12.018-0.936l3.753-17.567l-0.94-7.413l-7.272-5.17
	c-0.532-0.384-0.927-0.972-1.089-1.589c-0.03-0.144-1.951-7.701-1.962-17.453c0.012-8.595,1.466-19.013,7.426-27.565
	c0.479-0.708,1.06-1.355,1.61-2.04c-4.489-2.621-10.491-4.306-18.835-4.342C17.84,47.106,10.341,51.88,5.822,58.238z"/>
<path fill="#FFFFFF" d="M82.425,44.317c-15.411,0.06-23.712,5.314-28.698,12.337c-4.956,7.053-6.41,16.368-6.398,24.339
	c-0.012,6.975,1.071,12.853,1.555,15.09l7.404,5.248c0.634,0.462,1.06,1.158,1.155,1.938l5.842,33.491
	c2.274,0.156,6.512,0.48,13.424,1.068c0,0,4.327-21.526,5.728-21.526c1.383,0,5.56,21.526,5.56,21.526
	c6.948-0.588,11.251-0.912,13.556-1.068l5.848-34.115c0.084-0.731,0.466-1.421,1.065-1.877l7.648-5.938l0.048-0.24
	c0.156-0.768,0.372-1.89,0.594-3.281c0.437-2.789,0.873-6.7,0.867-11.036c0.024-7.791-1.424-16.902-6.392-23.823
	C106.256,49.559,97.902,44.365,82.425,44.317z"/>
<path fill="#E6E7E8" d="M31.953,44.593c3.299,0,6.356-0.912,9.062-2.411c5.864-3.203,9.881-9.369,9.881-16.542
	c0-10.46-8.475-18.946-18.944-18.946c-10.467,0-18.948,8.486-18.948,18.946c0,7.173,4.023,13.339,9.887,16.542
	C25.597,43.681,28.649,44.593,31.953,44.593z"/>
<path fill="#FFFFFF" d="M82.485,41.384c3.148,0,6.086-0.756,8.762-2.003c7.033-3.311,11.928-10.4,11.928-18.683
	C103.175,9.255,93.904,0,82.485,0C71.059,0,61.794,9.255,61.794,20.698c0,8.283,4.896,15.372,11.916,18.683
	C76.393,40.628,79.33,41.384,82.485,41.384z"/>
<polygon fill="#F3785F" points="94.657,59.397 96.925,66.377 104.262,66.377 98.326,70.689 100.593,77.669 94.657,73.356 
	88.721,77.669 90.988,70.689 85.052,66.377 92.39,66.377 "/>
<polygon fill="#817FA4" points="147.939,63.424 149.208,67.328 153.311,67.328 149.991,69.739 151.259,73.643 147.939,71.231 
	144.619,73.643 145.887,69.739 142.567,67.328 146.671,67.328 "/>
</svg>
