<?xml version="1.0" encoding="utf-8"?>
<!-- Generator: Adobe Illustrator 15.0.2, SVG Export Plug-In  -->
<!DOCTYPE svg PUBLIC "-//W3C//DTD SVG 1.1//EN" "http://www.w3.org/Graphics/SVG/1.1/DTD/svg11.dtd" [
	<!ENTITY ns_flows "http://ns.adobe.com/Flows/1.0/">
]>
<svg version="1.1"
	 xmlns="http://www.w3.org/2000/svg" xmlns:xlink="http://www.w3.org/1999/xlink" xmlns:a="http://ns.adobe.com/AdobeSVGViewerExtensions/3.0/"
	 x="0px" y="0px" width="113px" height="108px" viewBox="0 0 113 108" overflow="visible" enable-background="new 0 0 113 108"
	 xml:space="preserve">
<defs>
</defs>
<path fill="#EF4136" d="M109.49,37.316c-0.009-0.003-4.053-2.152-22.153-2.152c-14.379,0.003-26.62,2.983-36.62,8.382
	c-10.003,5.41-17.829,13.228-23.401,23.283c-2.741,4.956-4.92,10.464-6.5,16.492c-1.34,7.818-1.636,13.003-1.638,16.037
	c0,1.992,0.127,3.061,0.165,3.344c0.229,1.665,1.166,3.159,2.562,4.089c1.396,0.927,3.137,1.216,4.758,0.785
	c0.208-0.056,4.253-1.141,10.365-3.703c5.219-2.194,11.951-5.478,19.074-10.142c6.56,4.854,13.376,8.126,18.861,10.297
	c6.487,2.559,11.137,3.562,11.367,3.615c1.681,0.358,3.444-0.038,4.808-1.086c1.362-1.044,2.201-2.651,2.286-4.366
	c0.002-0.09,0.03-0.667,0.03-1.687c0-4.064-0.418-15.194-4.269-30.795c16.386-13.943,22.367-23.594,22.677-24.109
	c0.848-1.396,1.074-3.09,0.625-4.66C112.037,39.37,110.947,38.053,109.49,37.316z"/>
<path fill="#2B4078" d="M53.398,27.933c5.798-2.68,12.38-4.494,19.72-5.167C66.208,7.595,61.077,2.283,60.459,1.676
	c-2.305-2.253-5.972-2.232-8.25,0.047c-0.429,0.431-2.193,2.313-5.133,7.239c-2.669,4.47-6.307,11.458-10.765,22.153
	c-23.133,1.878-32.107,5.756-32.861,6.094c-2.854,1.294-4.187,4.583-3.037,7.498c0.263,0.667,1.457,3.342,5.253,7.942
	c2.957,3.583,7.537,8.356,14.485,14.267C22,61.405,24.659,55.64,28.258,50.117C34.014,41.293,42.242,33.079,53.398,27.933z"/>
</svg>
