<?xml version="1.0" encoding="utf-8"?>
<!-- Generator: Adobe Illustrator 15.0.2, SVG Export Plug-In  -->
<!DOCTYPE svg PUBLIC "-//W3C//DTD SVG 1.1//EN" "http://www.w3.org/Graphics/SVG/1.1/DTD/svg11.dtd" [
	<!ENTITY ns_flows "http://ns.adobe.com/Flows/1.0/">
]>
<svg version="1.1"
	 xmlns="http://www.w3.org/2000/svg" xmlns:xlink="http://www.w3.org/1999/xlink" xmlns:a="http://ns.adobe.com/AdobeSVGViewerExtensions/3.0/"
	 x="0px" y="0px" width="23px" height="22px" viewBox="0 0 23 22" overflow="visible" enable-background="new 0 0 23 22"
	 xml:space="preserve">
<defs>
</defs>
<path fill="#FFFFFF" d="M21.916,7.469c-0.002,0-0.812-0.43-4.434-0.43c-2.878,0-5.329,0.597-7.33,1.678
	c-2.002,1.082-3.569,2.646-4.684,4.66c-0.548,0.992-0.985,2.094-1.301,3.301c-0.268,1.565-0.327,2.603-0.328,3.21
	c0,0.398,0.025,0.612,0.033,0.669c0.046,0.333,0.233,0.632,0.513,0.818c0.279,0.186,0.628,0.243,0.952,0.157
	c0.042-0.011,0.852-0.228,2.075-0.741c1.044-0.438,2.392-1.097,3.818-2.03c1.313,0.972,2.678,1.626,3.775,2.061
	c1.299,0.512,2.229,0.714,2.275,0.724c0.336,0.072,0.689-0.007,0.962-0.217c0.273-0.209,0.44-0.53,0.458-0.874
	c0-0.018,0.006-0.134,0.006-0.337c0-0.813-0.084-3.041-0.854-6.164c3.28-2.791,4.477-4.723,4.539-4.826
	c0.17-0.279,0.215-0.619,0.125-0.933C22.425,7.88,22.207,7.617,21.916,7.469z"/>
<path fill="#FFFFFF" d="M10.688,5.591c1.16-0.537,2.478-0.899,3.947-1.034c-1.383-3.037-2.41-4.101-2.534-4.222
	c-0.461-0.45-1.196-0.447-1.651,0.009c-0.086,0.087-0.439,0.463-1.028,1.45C8.888,2.689,8.16,4.087,7.268,6.229
	C2.637,6.604,0.841,7.38,0.69,7.448c-0.571,0.26-0.837,0.917-0.608,1.501c0.053,0.134,0.292,0.669,1.052,1.59
	c0.591,0.718,1.508,1.673,2.899,2.855c0.37-1.103,0.902-2.256,1.623-3.363C6.808,8.265,8.455,6.621,10.688,5.591z"/>
</svg>
