<?xml version="1.0" encoding="utf-8"?>
<!-- Generator: Adobe Illustrator 15.0.2, SVG Export Plug-In . SVG Version: 6.00 Build 0)  -->
<!DOCTYPE svg PUBLIC "-//W3C//DTD SVG 1.1//EN" "http://www.w3.org/Graphics/SVG/1.1/DTD/svg11.dtd">
<svg version="1.1" id="Layer_1" xmlns="http://www.w3.org/2000/svg" xmlns:xlink="http://www.w3.org/1999/xlink" x="0px" y="0px"
	 width="959px" height="593px" viewBox="0 0 959 593" enable-background="new 0 0 959 593" xml:space="preserve">
<path fill="none" stroke="#EDEDED" stroke-miterlimit="10" d="M211,493v55l36,45 M0,425h144l67,68h86l53,54v46"/>
<path fill="none" stroke="#EDEDED" stroke-miterlimit="10" d="M559.776,593v-77.331h122.239V593 M632.773,515.669V593
	 M559.776,557.526h122.239 M597.895,556.613v37.123"/>
<g>
	<g opacity="0.8">
		<path id="HI" fill="#D3D3D3" d="M233.087,519.31l1.94-3.557l2.263-0.323l0.324,0.811l-2.102,3.069H233.087z M243.272,515.591
			l6.144,2.587l2.102-0.322l1.616-3.881l-0.646-3.395l-4.203-0.485l-4.042,1.778L243.272,515.591z M273.988,525.614l3.718,5.496
			l2.425-0.323l1.132-0.484l1.455,1.293l3.718-0.162l0.97-1.452l-2.91-1.778l-1.94-3.719l-2.102-3.559l-5.82,2.91L273.988,525.614z
			 M294.195,534.506l1.293-1.938l4.688,0.97l0.647-0.484l6.143,0.646l-0.323,1.293l-2.587,1.455l-4.365-0.323L294.195,534.506z
			 M299.53,539.679l1.94,3.88l3.072-1.132l0.323-1.616l-1.617-2.102l-3.718-0.323V539.679z M306.481,538.547l2.264-2.909
			l4.688,2.425l4.365,1.133l4.365,2.749v1.938l-3.557,1.778l-4.85,0.97l-2.425-1.454L306.481,538.547z M323.133,554.066l1.617-1.293
			l3.395,1.614l7.598,3.559l3.395,2.102l1.617,2.425l1.94,4.365l4.042,2.587l-0.323,1.293l-3.88,3.233l-4.203,1.455l-1.455-0.646
			l-3.072,1.777l-2.425,3.231l-2.263,2.91l-1.778-0.162l-3.557-2.586l-0.323-4.524l0.646-2.427l-1.616-5.656l-2.102-1.778
			l-0.162-2.587l2.264-0.97l2.102-3.072l0.485-0.97l-1.617-1.778L323.133,554.066z"/>
		<path id="AK" fill="#D3D3D3" d="M158.077,453.675l-0.323,85.357l1.617,0.97l3.071,0.162l1.455-1.132h2.586l0.162,2.909
			l6.952,6.788l0.485,2.589l3.395-1.939l0.646-0.162l0.323-3.071l1.455-1.615l1.132-0.161l1.94-1.455l3.071,2.102l0.647,2.91
			l1.94,1.131l1.131,2.426l3.88,1.777l3.395,5.982l2.748,3.88l2.263,2.748l1.455,3.718l5.012,1.778l5.173,2.102l0.97,4.365
			l0.485,3.069l-0.97,3.396l-1.778,2.264l-1.617-0.809l-1.455-3.071l-2.748-1.455l-1.778-1.132l-0.809,0.809l1.455,2.748
			l0.162,3.721l-1.131,0.482l-1.94-1.938l-2.102-1.293l0.485,1.614l1.293,1.778l-0.808,0.811c0,0-0.808-0.324-1.293-0.973
			c-0.485-0.646-2.102-3.395-2.102-3.395l-0.97-2.266c0,0-0.323,1.295-0.97,0.973c-0.646-0.323-1.293-1.455-1.293-1.455l1.778-1.94
			l-1.455-1.455v-5.011h-0.808l-0.809,3.396l-1.132,0.483l-0.97-3.719l-0.646-3.718l-0.809-0.485l0.323,5.658v1.132l-1.455-1.293
			l-3.557-5.982l-2.102-0.482l-0.647-3.719l-1.616-2.909l-1.617-1.132v-2.266l2.102-1.293l-0.485-0.323l-2.587,0.646l-3.395-2.425
			l-2.587-2.91l-4.85-2.586l-4.042-2.587l1.293-3.233v-1.616l-1.778,1.616l-2.91,1.132l-3.718-1.132l-5.658-2.425h-5.496
			l-0.647,0.485l-6.466-3.881l-2.102-0.322l-2.749-5.82l-3.556,0.323l-3.557,1.455l0.485,4.524l1.132-2.908l0.97,0.322l-1.455,4.364
			l3.233-2.748l0.646,1.616l-3.88,4.365l-1.293-0.323l-0.485-1.94l-1.293-0.808l-1.293,1.131l-2.748-1.778l-3.072,2.104
			l-1.778,2.102l-3.395,2.104l-4.688-0.162l-0.485-2.102l3.718-0.646v-1.294l-2.263-0.646l0.97-2.425l2.263-3.88v-1.776l0.162-0.81
			l4.365-2.264l0.97,1.293h2.749l-1.293-2.586l-3.718-0.323l-5.012,2.748l-2.425,3.396l-1.778,2.588l-1.131,2.263l-4.203,1.455
			l-3.072,2.587l-0.323,1.616l2.263,0.971l0.808,2.102l-2.748,3.232l-6.466,4.204l-7.76,4.203l-2.102,1.131l-5.335,1.132
			l-5.335,2.264l1.778,1.293l-1.455,1.455l-0.485,1.134l-2.748-0.973l-3.233,0.162l-0.808,2.264h-0.97l0.323-2.426l-3.556,1.294
			l-2.91,0.972l-3.395-1.295l-2.91,1.939h-3.233l-2.102,1.293l-1.617,0.811l-2.102-0.323l-2.586-1.132l-2.263,0.646l-0.97,0.971
			l-1.616-1.132v-1.938l3.071-1.293l6.305,0.646l4.365-1.616l2.102-2.102l2.91-0.646l1.778-0.809l2.748,0.162l1.617,1.293
			l0.97-0.323l2.263-2.748l3.071-0.971l3.395-0.646l1.293-0.321l0.646,0.483h0.809l1.293-3.719l4.042-1.455l1.94-3.718l2.263-4.526
			l1.617-1.455l0.323-2.587l-1.616,1.294l-3.395,0.646l-0.646-2.425l-1.293-0.323l-0.97,0.97l-0.162,2.91l-1.455-0.162l-1.455-5.819
			l-1.293,1.293l-1.131-0.483l-0.324-1.939l-4.042,0.161l-2.102,1.132l-2.586-0.322l1.455-1.454l0.485-2.587l-0.646-1.939
			l1.455-0.97l1.293-0.162l-0.646-1.778V526.1l-0.97-0.971l-0.808,1.455h-6.143l-1.455-1.293l-0.646-3.88l-2.102-3.559v-0.97
			l2.102-0.809l0.162-2.104l1.131-1.132l-0.808-0.483l-1.293,0.483l-1.131-2.748l0.97-5.012l4.526-3.233l2.587-1.615l1.94-3.719
			l2.748-1.294l2.586,1.132l0.324,2.427l2.425-0.323l3.233-2.425l1.617,0.646l0.97,0.646h1.617l2.263-1.293l0.808-4.365
			c0,0,0.323-2.909,0.97-3.396c0.646-0.483,0.97-0.97,0.97-0.97l-1.131-1.938l-2.587,0.809l-3.233,0.809l-1.94-0.483l-3.557-1.778
			l-5.012-0.161l-3.557-3.719l0.485-3.88l0.646-2.425l-2.102-1.778l-1.94-3.718l0.485-0.811l6.79-0.483H66.9l0.97,0.971h0.647
			l-0.162-1.617l3.88-0.646l2.587,0.321l1.455,1.134l-1.455,2.102l-0.485,1.455l2.748,1.616l5.011,1.776l1.778-0.97l-2.263-4.365
			l-0.97-3.231l0.97-0.81l-3.395-1.938l-0.485-1.132l0.485-1.616l-0.808-3.88l-2.91-4.688l-2.425-4.203l2.91-1.938h3.233
			l1.778,0.646l4.204-0.162l3.718-3.556l1.132-3.072l3.718-2.425l1.617,0.971l2.748-0.646l3.718-2.102l1.132-0.161l0.97,0.808
			l4.526-0.161l2.749-3.069h1.131l3.557,2.425l1.94,2.102l-0.485,1.131l0.646,1.132l1.617-1.614l3.88,0.321l0.323,3.72l1.94,1.455
			l7.113,0.646l6.305,4.203l1.455-0.97l5.173,2.587l2.102-0.646l1.94-0.809l4.85,1.938L158.077,453.675z M42.974,482.612
			l2.102,5.335l-0.162,0.97l-2.91-0.323l-1.778-4.041l-1.778-1.455h-2.425l-0.162-2.587l1.778-2.425l1.131,2.425l1.455,1.455
			L42.974,482.612z M40.387,516.076l3.718,0.809l3.718,0.972l0.808,0.97l-1.616,3.719l-3.072-0.162l-3.395-3.557L40.387,516.076z
			 M19.695,502.012l1.131,2.587l1.132,1.616l-1.132,0.811l-2.102-3.072v-1.939L19.695,502.012L19.695,502.012z M5.954,575.083
			l3.395-2.264l3.395-0.972l2.587,0.323l0.485,1.616l1.94,0.485l1.94-1.94l-0.323-1.616l2.748-0.646l2.91,2.586l-1.131,1.777
			l-4.365,1.133l-2.749-0.484l-3.718-1.132l-4.365,1.455l-1.617,0.323L5.954,575.083z M54.937,570.556l1.616,1.94l2.102-1.617
			l-1.455-1.293L54.937,570.556z M57.847,573.628l1.132-2.264l2.102,0.323l-0.809,1.938L57.847,573.628L57.847,573.628z
			 M81.449,571.688l1.455,1.778l0.97-1.132l-0.808-1.939L81.449,571.688z M90.179,559.24l1.131,5.817l2.91,0.811l5.011-2.91
			l4.365-2.587l-1.616-2.425l0.485-2.425l-2.102,1.293l-2.91-0.81l1.617-1.132l1.94,0.81l3.88-1.777l0.485-1.455l-2.425-0.811
			l0.808-1.938l-2.748,1.938l-4.688,3.559l-4.85,2.91L90.179,559.24z M132.534,539.355l2.425-1.455l-0.97-1.778l-1.778,0.97
			L132.534,539.355z"/>
		<path id="FL" fill="#EDEDED" d="M755.396,445.507l2.267,7.318l3.729,9.742l5.335,9.377l3.72,6.305l4.85,5.496l4.042,3.718
			l1.616,2.91l-1.131,1.293l-0.811,1.294l2.91,7.438l2.909,2.907l2.587,5.335l3.557,5.82l4.526,8.244l1.293,7.599l0.485,11.963
			l0.646,1.778l-0.322,3.396l-2.426,1.293l0.323,1.938l-0.646,1.939l0.321,2.425l0.485,1.939l-2.749,3.232l-3.071,1.454l-3.88,0.162
			l-1.455,1.616l-2.425,0.971l-1.293-0.485l-1.132-0.97l-0.323-2.91l-0.81-3.395l-3.396-5.174l-3.557-2.265l-3.881-0.321
			l-0.81,1.293l-3.071-4.365l-0.646-3.557l-2.587-4.043l-1.778-1.132l-1.616,2.104l-1.776-0.323l-2.104-5.012l-2.91-3.879
			l-2.907-5.336l-2.588-3.071l-3.558-3.72l2.104-2.425l3.231-5.496l-0.162-1.615l-4.524-0.972l-1.616,0.646l0.323,0.646l2.587,0.972
			l-1.455,4.525l-0.811,0.484l-1.776-4.041l-1.294-4.853l-0.322-2.747l1.455-4.688v-9.538l-3.072-3.719l-1.293-3.071l-5.173-1.293
			l-1.94-0.646l-1.615-2.588l-3.396-1.615l-1.131-3.396l-2.749-0.97l-2.425-3.718l-4.203-1.455l-2.91-1.455h-2.586l-4.042,0.808
			l-0.161,1.94l0.809,0.97l-0.483,1.132l-3.071-0.162l-3.719,3.559l-3.558,1.938h-3.881l-3.23,1.293l-0.323-2.748l-1.617-1.938
			l-2.91-1.132l-1.614-1.455l-8.083-3.88l-7.6-1.778l-4.364,0.646l-5.98,0.483l-5.98,2.104l-3.479,0.61l-0.237-8.05l-2.587-1.938
			l-1.777-1.778l0.322-3.071l10.187-1.294l25.543-2.909l6.789-0.646l5.437,0.28l2.586,3.88l1.455,1.454l8.1,0.516l10.818-0.646
			l21.514-1.294l5.444-0.674l4.577,0.027l0.162,2.91l3.824,0.809l0.322-4.807l-1.616-4.527l0.955-0.73l5.111,0.453L755.396,445.507z
			 M767.942,577.912l2.425-0.646l1.294-0.241l1.455-2.346l2.344-1.616l1.293,0.484l1.698,0.323l0.403,1.051l-3.478,1.213
			l-4.203,1.455l-2.344,1.212L767.942,577.912z M781.441,572.9l1.213,1.051l2.748-2.104l5.335-4.201l3.718-3.882l2.506-6.628
			l0.97-1.695l0.162-3.396l-0.728,0.485l-0.973,2.829l-1.453,4.605l-3.232,5.254l-4.365,4.203l-3.395,1.939L781.441,572.9z"/>
		<path id="SC" fill="#E3E2E0" d="M761.23,412.938l-1.776,0.972l-2.587-1.293l-0.646-2.104l-1.293-3.557l-2.264-2.104l-2.587-0.646
			l-1.616-4.851l-2.748-5.981l-4.203-1.938l-2.102-1.94l-1.294-2.586l-2.104-1.94l-2.263-1.293l-2.264-2.91l-3.071-2.263
			l-4.526-1.778l-0.483-1.453l-2.425-2.91l-0.484-1.455l-3.396-5.173l-3.395,0.161l-4.042-2.427l-1.293-1.293l-0.323-1.776
			l0.811-1.939l2.263-0.971l-0.323-2.104l6.146-2.586l9.053-4.524l7.272-0.811l16.489-0.483l2.264,1.938l1.616,3.233l4.365-0.485
			l12.609-1.455l2.908,0.811l12.609,7.598l10.108,8.122l-5.423,5.458l-2.587,6.144l-0.483,6.307l-1.616,0.808l-1.132,2.749
			l-2.425,0.646l-2.104,3.557l-2.748,2.748l-2.264,3.395l-1.616,0.811l-3.557,3.395l-2.91,0.162l0.97,3.233l-5.011,5.496
			L761.23,412.938z"/>
		<path id="GA" fill="#D3D3D3" d="M689.616,357.973l-4.852,0.811l-8.404,1.132l-8.568,0.889v2.185l0.162,2.102l0.646,3.396
			l3.396,7.922l2.425,9.859l1.455,6.145l1.617,4.85l1.455,6.952l2.102,6.305l2.586,3.396l0.485,3.395l1.938,0.811l0.162,2.102
			l-1.776,4.852l-0.485,3.231l-0.161,1.94l1.616,4.363l0.323,5.335l-0.81,2.426l0.646,0.809l1.455,0.81l0.646,3.396l2.586,3.88
			l1.455,1.455l7.922,0.161l10.819-0.646l21.513-1.293l5.445-0.675l4.577,0.028l0.162,2.909l2.587,0.809l0.323-4.364l-1.617-4.525
			l1.132-1.616l5.82,0.809l4.977,0.317l-0.774-6.299l2.265-10.022l1.455-4.203l-0.485-2.587l3.335-6.244l-0.511-1.352l-1.913,0.704
			l-2.587-1.293l-0.646-2.104l-1.294-3.557l-2.264-2.103l-2.587-0.646l-1.616-4.85l-2.925-6.335l-4.203-1.94l-2.102-1.938
			l-1.294-2.587l-2.104-1.939l-2.263-1.293l-2.264-2.91l-3.071-2.263l-4.526-1.778l-0.483-1.455l-2.426-2.91l-0.484-1.455
			l-3.396-4.905l-3.395,0.16l-4.13-3.045l-1.294-1.293l-0.323-1.776l0.809-1.939l2.354-1.234L709.1,356l0.078-0.29l-5.818,0.97
			l-6.951,0.81L689.616,357.973z"/>
		<path id="AL" fill="#E3E2E0" d="M625.598,466.771l-1.613-15.196l-2.748-18.753l0.161-14.064l0.809-31.038l-0.162-16.649
			l0.165-6.419l7.757-0.371l27.808-2.586l8.922-0.663l-0.147,2.183l0.162,2.104l0.646,3.396l3.395,7.921l2.425,9.861l1.455,6.144
			l1.617,4.852l1.454,6.95l2.102,6.306l2.587,3.396l0.485,3.396l1.939,0.809l0.161,2.104l-1.777,4.85l-0.485,3.233l-0.161,1.938
			l1.616,4.365l0.323,5.335l-0.811,2.425l0.647,0.81l1.454,0.809l1.036,2.535h-6.308l-6.789,0.646l-25.543,2.91l-10.409,1.407
			l-0.099,3.752l1.778,1.778l2.587,1.938l0.581,7.938l-5.542,2.572l-2.749-0.322l2.749-1.94v-0.97l-3.072-5.981l-2.263-0.646
			l-1.455,4.365l-1.293,2.747l-0.647-0.161h-2.748V466.771z"/>
		<path id="NC" fill="#D3D3D3" d="M832.106,298.473l1.71,4.697l3.557,6.467l2.425,2.425l0.646,2.266l-2.425,0.161l0.809,0.646
			l-0.323,4.203l-2.587,1.294l-0.646,2.104l-1.293,2.908l-3.721,1.616l-2.425-0.323l-1.455-0.16l-1.616-1.293l0.323,1.293v0.971
			h1.939l0.809,1.293l-1.938,6.305h4.201l0.646,1.616l2.263-2.263l1.294-0.485l-1.938,3.557l-3.071,4.852h-1.293l-1.132-0.484
			l-2.748,0.646l-5.174,2.425l-6.466,5.335l-3.396,4.688l-1.939,6.468l-0.483,2.425l-4.688,0.484l-5.453,1.338l-9.944-8.203
			l-12.61-7.6l-2.909-0.809l-12.607,1.455l-4.277,0.75l-1.616-3.233l-2.971-2.115l-16.489,0.483l-7.272,0.811l-9.055,4.524
			l-6.144,2.587l-1.616,0.323l-5.82,0.97l-6.949,0.811l-6.79,0.483l0.5-4.055l1.776-1.455l2.749-0.646l0.646-3.721l4.203-2.748
			l3.88-1.454l4.203-3.558l4.363-2.102l0.646-3.071l3.881-3.88l0.646-0.161c0,0,0,1.131,0.808,1.131c0.809,0,1.94,0.324,1.94,0.324
			l2.263-3.558l2.102-0.646l2.266,0.324l1.614-3.559l2.91-2.587l0.485-2.102V315.7l4.524,0.728l7.138-1.293l15.819-1.938
			l17.137-2.586l19.922-4.001l19.732-4.164l11.363-2.797L832.106,298.473z M836.002,331.46l2.587-2.506l3.152-2.587l1.535-0.646
			l0.16-2.021l-0.646-6.146l-1.455-2.344l-0.646-1.859l0.729-0.24l2.748,5.496l0.404,4.443l-0.162,3.396l-3.396,1.536l-2.829,2.425
			l-1.132,1.212L836.002,331.46z"/>
		<path id="TN" fill="#F5F4F4" d="M697.053,320.629l-51.893,5.012l-15.76,1.778l-4.621,0.513l-3.868-0.025v3.88l-8.407,0.482
			l-6.951,0.646l-11.096,0.053l-0.265,5.836l-2.141,6.275l-0.995,3.017l-1.349,4.381l-0.323,2.588l-4.041,2.264l1.455,3.557
			l-0.971,4.364l-0.968,0.79l7.256-0.194l24.087-1.938l5.335-0.162l8.083-0.485l27.806-2.586l10.171-0.809l8.42-0.97l8.406-1.134
			l4.853-0.809l-0.133-4.509l1.778-1.455l2.748-0.646l0.646-3.719l4.201-2.748l3.882-1.455l4.202-3.557l4.364-2.104l0.874-3.523
			l4.333-3.88l0.646-0.161c0,0,0,1.131,0.809,1.131c0.811,0,1.94,0.324,1.94,0.324l2.263-3.559l2.103-0.646l2.265,0.324l1.616-3.559
			l2.114-2.246l0.601-0.967l0.177-3.933l-1.483-0.288l-2.425,1.938l-7.922,0.162l-11.995,1.9L697.053,320.629z"/>
		<path id="RI" fill="#E3E2E0" d="M874.07,179.823l-0.483-4.204l-0.809-4.365l-1.697-5.901l5.739-1.536l1.614,1.131l3.396,4.365
			l2.908,4.446l-2.91,1.536l-1.294-0.162l-1.132,1.778l-2.425,1.94L874.07,179.823z"/>
		<path id="CT" fill="#D3D3D3" d="M873.193,180.05l-0.628-4.204l-0.81-4.365l-1.617-5.981l-4.149,0.905l-21.824,4.769l0.646,3.314
			l1.455,7.275v8.083l-1.132,2.263l1.832,2.109l4.956-3.401l3.557-3.233l1.939-2.102l0.809,0.647l2.748-1.455l5.175-1.132
			L873.193,180.05z"/>
		<path id="MA" fill="#D3D3D3" d="M899.977,173.851l2.175-0.686l0.457-1.715l1.026,0.114l1.029,2.286l-1.258,0.458l-3.889,0.114
			L899.977,173.851z M890.604,174.651l2.286-2.629h1.603l1.829,1.486l-2.4,1.029l-2.172,1.029L890.604,174.651z M855.805,152.663
			l17.459-4.203l2.266-0.646l2.102-3.233l3.736-1.663l2.89,4.413l-2.425,5.173l-0.324,1.455l1.94,2.586l1.132-0.809h1.778
			l2.263,2.587l3.88,5.981l3.558,0.485l2.265-0.97l1.776-1.778l-0.809-2.749l-2.102-1.617l-1.455,0.809l-0.972-1.293l0.484-0.485
			l2.102-0.162l1.778,0.808l1.94,2.425l0.97,2.91l0.323,2.425l-4.203,1.455l-3.88,1.94l-3.88,4.526l-1.939,1.455v-0.97l2.425-1.455
			l0.484-1.778l-0.81-3.072l-2.908,1.455l-0.811,1.455l0.485,2.263l-2.066,1l-2.747-4.527l-3.395-4.365l-2.071-1.812l-6.533,1.876
			l-5.092,1.051l-21.824,4.769l-0.4-4.944l0.646-10.589l5.173-0.889L855.805,152.663z"/>
		<path id="ME" fill="#D3D3D3" d="M923.215,77.331l1.939,2.102l2.264,3.718v1.94l-2.102,4.688l-1.94,0.647l-3.395,3.071
			l-4.852,5.497c0,0-0.646,0-1.293,0c-0.646,0-0.971-2.102-0.971-2.102l-1.778,0.162l-0.97,1.455l-2.425,1.455l-0.972,1.455
			l1.616,1.455l-0.482,0.646l-0.485,2.749l-1.94-0.162v-1.617l-0.321-1.293l-1.454,0.323l-1.778-3.233l-2.102,1.293l1.293,1.455
			l0.322,1.132l-0.81,1.293l0.323,3.072l0.162,1.617l-1.616,2.586l-2.91,0.485l-0.323,2.91l-5.335,3.071l-1.293,0.485l-1.617-1.455
			l-3.069,3.556l0.97,3.233l-1.455,1.293l-0.161,4.365l-1.124,6.259l-2.462-1.156l-0.485-3.072l-3.879-1.131l-0.322-2.749
			l-7.274-23.441l-4.198-13.64l1.42-0.118l1.516,0.41v-2.587l0.809-5.496l2.587-4.688l1.455-4.042l-1.94-2.425v-5.979l0.811-0.97
			l0.809-2.749l-0.16-1.455l-0.161-4.85l1.776-4.85l2.909-8.892l2.104-4.203h1.294l1.293,0.162v1.132l1.293,2.263l2.748,0.646
			l0.809-0.808v-0.97l4.042-2.91l1.778-1.778l1.454,0.162l5.979,2.425l1.94,0.97l9.053,29.907h5.981l0.809,1.94l0.161,4.85
			l2.91,2.263h0.809l0.161-0.485l-0.484-1.132L923.215,77.331z M902.283,107.478l1.535-1.536l1.375,1.051l0.563,2.425l-1.697,0.889
			L902.283,107.478z M908.992,101.578l1.776,1.859c0,0,1.294,0.081,1.294-0.242c0-0.323,0.241-2.021,0.241-2.021l0.892-0.808
			l-0.811-1.778l-2.021,0.728L908.992,101.578z"/>
		<path id="NH" fill="#E3E2E0" d="M880.799,142.425l0.869-1.077l1.09-3.291l-2.543-0.914l-0.482-3.071l-3.881-1.132l-0.322-2.748
			l-7.275-23.441l-4.602-14.543l-0.896-0.005l-0.646,1.617l-0.646-0.485l-0.971-0.97l-1.455,1.94l-0.048,5.032l0.312,5.667
			l1.939,2.748v4.042l-3.718,5.063l-2.587,1.131v1.132l1.132,1.778v8.568l-0.811,9.215l-0.161,4.85l0.972,1.293l-0.161,4.526
			l-0.485,1.778l1.455,0.886l16.391-4.69l2.265-0.646l1.534-2.552L880.799,142.425z"/>
		<path id="VT" fill="#D3D3D3" d="M844.344,153.727l-0.809-5.658l-2.393-9.972l-0.646-0.323l-2.91-1.293l0.81-2.91l-0.81-2.102
			l-2.7-4.64l0.972-3.88l-0.81-5.173l-2.425-6.466l-0.806-4.922l26.246-6.748l0.323,5.819l1.94,2.749v4.042l-3.719,4.042
			l-2.586,1.131v1.132l1.132,1.778v8.568l-0.811,9.215l-0.162,4.85l0.973,1.293l-0.162,4.526l-0.485,1.778l0.661,1.567l-6.951,1.374
			L844.344,153.727z"/>
		<path id="NY" fill="#E3E2E0" d="M828.614,189.422l-1.132-0.97l-2.586-0.162l-2.266-1.94L821,180.221l-3.458,0.091l-2.444-2.708
			l-19.385,4.382l-43.002,8.73l-7.529,1.228l-0.736-6.468l1.428-1.125l1.293-1.132l0.971-1.617l1.778-1.131l1.939-1.778l0.483-1.617
			l2.104-2.748l1.132-0.97l-0.162-0.97l-1.293-3.072l-1.778-0.162l-1.938-6.143l2.909-1.778l4.364-1.455l4.041-1.293l3.233-0.485
			l6.305-0.161l1.939,1.293l1.617,0.162l2.102-1.293l2.587-1.131l5.173-0.485l2.104-1.778l1.776-3.233l1.616-1.94h2.102l1.94-1.131
			l0.161-2.263l-1.455-2.102l-0.323-1.455l1.132-2.102v-1.455h-1.776l-1.778-0.808l-0.808-1.132L789.2,134.4l5.817-5.497
			l0.647-0.808l1.454-2.91l2.91-4.526l2.748-3.718l2.102-2.425l2.415-1.826l3.082-1.246l5.496-1.293l3.231,0.162l4.526-1.455
			l7.564-2.071l0.521,4.98l2.425,6.466l0.811,5.173l-0.972,3.88l2.586,4.527l0.811,2.102l-0.811,2.91l2.91,1.293l0.646,0.323
			l3.07,10.993l-0.535,5.06l-0.484,10.831l0.808,5.497l0.811,3.557l1.455,7.274v8.083l-1.132,2.263l1.84,1.993l0.796,1.678
			l-1.939,1.778l0.323,1.293l1.293-0.323l1.455-1.293l2.264-2.586l1.131-0.647l1.617,0.647l2.265,0.162l7.922-3.88l2.909-2.748
			l1.294-1.455l4.202,1.617l-3.396,3.556l-3.88,2.91l-7.113,5.335l-2.587,0.97l-5.819,1.94l-4.041,1.131l-1.176-0.533l-0.244-3.688
			l0.485-2.748l-0.161-2.102l-2.812-1.699l-4.527-0.97l-3.88-1.131L828.614,189.422z"/>
		<path id="NJ" fill="#D3D3D3" d="M828.16,190.33l-2.104,2.425v3.072l-1.938,3.072l-0.162,1.616l1.293,1.293l-0.161,2.425
			l-2.264,1.132l0.809,2.748l0.162,1.132l2.748,0.323l0.97,2.586l3.559,2.425l2.425,1.617v0.809l-3.233,3.071l-1.615,2.263
			l-1.454,2.749l-2.266,1.293l-1.212,0.728l-0.242,1.212l-0.607,2.607l1.092,2.244l3.232,2.91l4.851,2.264l4.042,0.646l0.161,1.455
			l-0.81,0.97l0.323,2.748h0.81l2.102-2.425l0.809-4.85l2.748-4.042l3.072-6.466l1.131-5.497l-0.646-1.132l-0.161-9.376
			l-1.617-3.395l-1.132,0.808l-2.748,0.324l-0.484-0.485l1.132-0.97l2.103-1.94l0.062-1.094l-0.385-3.434l0.485-2.748l-0.162-2.102
			l-2.586-1.132l-4.526-0.97l-3.88-1.132L828.16,190.33z"/>
		<path id="PA" fill="#EDEDED" d="M822.207,226.46l1.132-0.647l2.263-0.612l1.455-2.748l1.617-2.263l3.232-3.072v-0.808
			l-2.425-1.617l-3.559-2.425l-0.97-2.587l-2.748-0.323l-0.162-1.131l-0.808-2.749l2.263-1.131l0.162-2.425l-1.294-1.293
			l0.162-1.617l1.938-3.072v-3.071l2.347-2.425l0.214-1.083l-2.586-0.162l-2.266-1.94l-2.425-5.335l-3.005-0.931l-2.33-2.141
			l-18.591,4.042l-43.002,8.73l-8.893,1.455l-0.495-7.084l-5.486,5.63l-1.294,0.485l-4.202,3.009l2.911,19.137l2.479,9.729
			l3.572,19.262l3.27-0.638l11.943-1.503l37.928-7.665l14.875-2.823l8.302-1.623l0.268-0.238l2.104-1.617L822.207,226.46z"/>
		<path id="DE" fill="#D3D3D3" d="M822.354,230.423l0.59-2.103l0.021-1.205l-1.269-0.088l-2.104,1.616l-1.455,1.455l1.455,4.203
			l2.264,5.658l2.103,9.7l1.617,6.305l5.011-0.162l6.144-1.212l-2.266-7.355l-0.97,0.485l-3.559-2.425l-1.776-4.688l-1.939-3.557
			l-2.264-0.97l-2.103-3.556L822.354,230.423z"/>
		<path id="MD" fill="#D3D3D3" d="M836.953,255.305l-6.141,1.292l-5.808,0.162l-1.844-7.099l-2.104-9.7l-2.264-5.658l-1.288-4.398
			L810,231.526l-14.877,2.823l-37.451,7.551l1.132,5.011l0.972,5.658l0.321-0.323l2.104-2.425l2.264-2.618l2.425-0.616l1.455-1.455
			l1.777-2.587l1.294,0.647l2.909-0.324l2.587-2.102l2.007-1.453l1.846-0.485l1.646,1.13l2.909,1.455l1.938,1.778l1.212,1.536
			l4.123,1.697v2.91l5.496,1.293l1.146,0.542l1.411-2.028l2.883,1.97l-1.278,2.482l-0.766,3.986l-1.778,2.586v2.102l0.646,1.778
			l5.063,1.355l4.312-0.062l3.071,0.97l2.104,0.323l0.97-2.102l-1.455-2.102v-1.778l-2.425-2.102l-2.104-5.497l1.293-5.335
			l-0.161-2.102l-1.293-1.293c0,0,1.454-1.617,1.454-2.264c0-0.646,0.485-2.102,0.485-2.102l1.938-1.293l1.939-1.617l0.485,0.97
			l-1.455,1.616l-1.294,3.718l0.322,1.132l1.777,0.323l0.485,5.497l-2.104,0.97l0.323,3.557l0.484-0.162l1.133-1.94l1.614,1.778
			l-1.614,1.293l-0.324,3.395l2.587,3.395l3.88,0.485l1.617-0.808l3.236,4.183l1.356,0.537l6.653-2.797l2.008-4.023L836.953,255.305
			z M820.321,264.29l1.131,2.506l0.162,1.778l1.132,1.859c0,0,0.889-0.889,0.889-1.212c0-0.323-0.728-3.072-0.728-3.072
			l-0.729-2.344L820.321,264.29z"/>
		<path id="WV" fill="#D3D3D3" d="M756.561,241.967l1.112,4.944l1.083,6.907l3.562-2.749l2.264-3.071l2.538-0.616l1.455-1.455
			l1.776-2.586l1.182,0.646l2.91-0.323l2.586-2.102l2.007-1.453l1.846-0.485l1.304,1.016l2.229,1.115l1.938,1.778l1.375,1.293
			l-0.144,4.671l-5.658-3.072l-4.524-1.778l-0.162,5.335l-0.484,2.102l-1.617,2.748l-0.646,1.617l-3.071,2.425l-0.485,2.264
			l-3.395,0.323l-0.323,3.071l-1.132,5.497h-2.587l-1.293-0.808l-1.616-2.749l-1.778,0.162l-0.321,4.365l-2.104,6.628l-5.012,10.831
			l0.809,1.293l-0.162,2.748l-2.102,1.94l-1.455-0.323l-3.232,2.425l-2.586-0.97l-1.777,4.688c0,0-3.72,0.81-4.365,0.972
			c-0.646,0.16-2.425-1.295-2.425-1.295l-2.425,2.264l-2.587,0.646l-2.91-0.809l-1.293-1.294l-2.192-3.022l-3.143-1.988
			l-2.587-2.748l-2.909-3.718l-0.646-2.263l-2.587-1.455l-0.809-1.617l-0.242-5.254l2.183-0.081l1.939-0.808l0.162-2.748
			l1.616-1.455l0.161-5.012l0.971-3.88l1.293-0.646l1.294,1.132l0.483,1.778l1.777-0.97l0.485-1.617l-1.133-1.778v-2.425
			l0.971-1.293l2.264-3.395l1.293-1.455l2.104,0.485l2.264-1.617l3.071-3.395l2.264-3.88l0.323-5.658l0.482-5.012v-4.688
			l-1.131-3.071l0.97-1.455l1.283-1.293l3.491,19.827l4.631-0.751L756.561,241.967z"/>
		<path id="KY" fill="#EDEDED" d="M721.783,297.818l-2.325,2.683l-4.203,3.556l-4.299,5.903l-1.778,1.778v2.102l-3.88,2.104
			l-5.658,3.395l-3.52,0.385l-51.868,4.898l-15.76,1.778l-4.621,0.513l-3.868-0.027l-0.227,4.222l-8.182,0.145l-6.951,0.647
			l-10.431,0.203l1.912-0.222l2.181-1.762l2.06-1.146l0.229-3.198l0.914-1.829l-1.604-2.539l0.802-1.907l2.264-1.778l2.104-0.646
			l2.748,1.294l3.557,1.293l1.131-0.323l0.162-2.264l-1.293-2.425l0.323-2.265l1.938-1.455l2.587-0.646l1.616-0.647l-0.808-1.776
			l-0.647-1.939l1.132-0.81l1.053-3.313l2.99-1.695l5.818-0.971l3.557-0.484l1.455,1.938l1.778,0.81l1.778-3.232l2.91-1.455
			l1.938,1.617l0.811,1.131l2.102-0.484l-0.162-3.395l2.91-1.617l1.132-0.808l1.132,1.616h4.688l0.809-2.102l-0.321-2.263
			l2.908-3.557l4.688-3.88l0.483-4.526l2.748-0.323l3.881-1.778l2.747-1.94l-0.321-1.94l-1.455-1.455l0.564-2.182l4.122-0.243
			l2.425-0.808l2.91,1.617l1.616,4.365l5.82,0.323l1.776,1.778l2.104,0.162l2.425-1.455l3.071,0.485l1.293,1.455l2.748-2.586
			l1.776-1.293h1.617l0.646,2.749l1.776,0.97l2.423,2.215l0.16,5.496l0.811,1.617l2.587,1.455l0.646,2.263l2.91,3.718l2.586,2.748
			L721.783,297.818z"/>
		<path id="OH" fill="#E3E2E0" d="M731.436,195.008l-6.093,4.053l-3.88,2.263l-3.396,3.718l-4.041,3.88l-3.233,0.808l-2.91,0.485
			l-5.496,2.586l-2.102,0.162l-3.396-3.072l-5.174,0.647l-2.586-1.455l-2.382-1.351l-4.894,0.703l-10.186,1.617l-7.76,1.212
			l1.294,14.63l1.778,13.741l2.586,23.441l0.564,4.831l4.122-0.129l2.425-0.809l3.364,1.503l2.07,4.365l5.139-0.017l1.894,2.119
			l1.762-0.065l2.538-1.341l2.504,0.372l1.975,1.455l1.729-2.132l2.346-1.293l2.07-0.681l0.646,2.748l1.778,0.97l3.476,2.344
			l2.185-0.081l1.146-1.149l-0.063-1.387l1.616-1.455l0.161-5.012l0.972-3.88l1.52-1.441l1.521,0.905l0.824,1.211l1.211-0.176
			l-0.424-2.411l-0.562-0.643v-2.425l0.97-1.293l2.264-3.395l1.294-1.455l2.103,0.485l2.263-1.617l3.072-3.395l2.263-3.88
			l0.211-5.431l0.484-5.011v-4.688l-1.132-3.071l0.97-1.455l0.921-0.955l-1.404-9.843L731.436,195.008z"/>
		<path id="MI" fill="#E3E2E0" d="M581.619,82.059l1.829-2.058l2.172-0.8l5.373-3.887l2.286-0.571l0.457,0.457l-5.146,5.144
			l-3.313,1.943l-2.06,0.915L581.619,82.059z M667.794,114.187l0.646,2.506l3.231,0.162l1.293-1.212c0,0-0.081-1.455-0.402-1.617
			c-0.323-0.162-1.616-1.859-1.616-1.859l-2.185,0.242l-1.616,0.162l-0.321,1.132L667.794,114.187z M697.86,177.237l-3.233-8.245
			l-2.264-9.053l-2.425-3.233l-2.587-1.778l-1.616,1.132l-3.88,1.778l-1.939,5.011l-2.748,3.718l-1.132,0.646l-1.455-0.646
			c0,0-2.587-1.455-2.425-2.102c0.161-0.646,0.482-5.012,0.482-5.012l3.396-1.293l0.808-3.395l0.647-2.586l2.425-1.617
			l-0.323-10.023l-1.617-2.263l-1.293-0.809l-0.809-2.102l0.809-0.808l1.616,0.323l0.162-1.617L676.036,131l-1.294-2.586h-2.586
			l-4.526-1.455l-5.497-3.395h-2.748l-0.646,0.647l-0.972-0.485l-3.07-2.263l-2.909,1.778l-2.91,2.263l0.323,3.557l0.97,0.323
			l2.104,0.485l0.483,0.809l-2.587,0.808l-2.586,0.324l-1.455,1.778l-0.323,2.102l0.323,1.617l0.323,5.497l-3.558,2.102
			l-0.646-0.162v-4.203l1.293-2.425l0.646-2.425l-0.81-0.808l-1.938,0.808l-0.972,4.204l-2.748,1.131l-1.776,1.94l-0.162,0.97
			l0.646,0.809l-0.646,2.586l-2.264,0.485v1.132l0.809,2.425l-1.131,6.143l-1.617,4.042l0.646,4.688l0.484,1.131l-0.809,2.425
			l-0.323,0.809l-0.323,2.748l3.558,5.981l2.909,6.466l1.455,4.85l-0.809,4.688l-0.97,5.981l-2.427,5.173l-0.322,2.748l-3.261,3.085
			l4.409-0.162l21.418-2.264l7.278-0.987l0.097,1.667l6.854-1.212l10.298-1.503l3.854-0.461l0.14-0.587l0.161-1.455l2.103-3.718
			l2-1.738l-0.222-5.052l1.597-1.597l1.091-0.343l0.223-3.557l1.535-3.031l1.053,0.606l0.161,0.646l0.809,0.162l1.939-0.97
			L697.86,177.237z M567.492,111.213l0.716-0.581l2.749-0.809l3.556-2.263v-0.97l0.647-0.646l5.979-0.97l2.427-1.94l4.362-2.102
			l0.162-1.293l1.939-2.91l1.776-0.808l1.295-1.778l2.264-2.264l4.365-2.425l4.688-0.485l1.132,1.132l-0.322,0.97l-3.719,0.97
			l-1.455,3.071l-2.264,0.809l-0.484,2.425l-2.425,3.233l-0.323,2.587l0.81,0.485l0.97-1.132l3.558-2.91l1.295,1.293h2.263
			l3.231,0.97l1.455,1.132l1.455,3.071l2.748,2.748l3.88-0.162l1.455-0.97l1.616,1.293l1.617,0.485l1.293-0.809h1.132l1.616-0.97
			l4.042-3.557l3.396-1.131l6.629-0.323l4.524-1.94l2.587-1.293l1.455,0.162v5.658l0.484,0.323l2.91,0.808l1.938-0.485l6.146-1.617
			l1.132-1.131l1.455,0.485v6.951l3.23,3.072l1.294,0.646l1.293,0.97l-1.293,0.323l-0.809-0.323l-3.718-0.485l-2.104,0.647
			l-2.264-0.162l-3.233,1.455h-1.776l-5.819-1.293l-5.173,0.162l-1.94,2.586l-6.95,0.647l-2.426,0.808l-1.132,3.071l-1.293,1.132
			l-0.484-0.162l-1.455-1.617l-4.525,2.425h-0.646l-1.133-1.617l-0.809,0.162l-1.939,4.365l-0.97,4.042l-3.182,7l-1.179-1.034
			l-1.37-1.031l-1.94-10.288l-3.544-1.37l-2.053-2.286l-12.12-2.743l-2.855-1.03l-8.229-2.173l-7.893-1.143L567.492,111.213z"/>
		<path id="WY" fill="#E3E2E0" d="M354.251,143.776l-10.549-0.807l-32.088-3.295l-16.232-2.058l-28.349-4.115l-19.89-2.972
			l-1.419,11.176l-3.839,24.26l-5.258,30.407l-1.531,10.516l-1.669,11.889l6.523,0.928l25.879,2.5l20.569,2.307l36.784,4.115
			l23.821,2.86l4.504-44.192l1.44-25.377L354.251,143.776z"/>
		<path id="MT" fill="#EDEDED" d="M356.671,122.274l0.647-11.151l2.259-24.787c0.457-5.029,1.083-8.472,1.372-15.41l0.94-14.552
			l-30.674-2.808l-29.261-3.556l-29.261-4.042l-32.332-5.335l-18.429-3.395l-32.724-6.933l-4.479,21.348l3.429,7.544l-1.372,4.572
			l1.829,4.573l3.201,1.372l4.621,10.77l2.695,3.177l0.457,1.143l3.429,1.143l0.458,2.058l-7.087,17.604v2.515l2.515,3.201h0.914
			l4.801-2.972l0.686-1.143l1.6,0.686l-0.229,5.258l2.744,12.574l2.972,2.515l0.915,0.686l1.829,2.286l-0.457,3.429l0.686,3.43
			l1.143,0.914l2.287-2.286h2.743l3.201,1.601l2.515-0.915h4.115l3.658,1.6l2.744-0.457l0.457-2.972l2.972-0.686l1.372,1.372
			l0.458,3.201l1.779,1.365l1.534-11.565l20.692,2.972l28.188,3.955l16.553,1.897l31.446,3.456l10.99,1.524l1.052-15.427
			L356.671,122.274z"/>
		<path id="ID" fill="#D3D3D3" d="M162.12,180.959c-22.611-4.343-14.147-2.847-21.141-4.351l4.427-17.502l4.344-17.718l1.372-4.229
			l2.515-5.944l-1.257-2.286l-2.515,0.114l-0.8-1.029l0.457-1.143l0.343-3.086l4.458-5.487l1.829-0.458l1.144-1.143l0.571-3.201
			l0.915-0.686l3.887-5.83l3.886-4.344l0.229-3.771l-3.43-2.629l-1.314-4.401l0.4-9.66l3.658-16.46l4.458-20.805l3.772-13.489
			l0.762-3.803l12.996,2.528l-4.158,21.508l2.948,7.705l-1.051,4.572l1.989,4.573l3.201,1.692l4.46,9.807l2.695,3.818l0.618,1.143
			l3.429,1.143l0.458,2.539l-6.927,16.802l0.321,3.317l2.675,2.879l1.877,0.481l4.801-3.614l0.365-0.501l0.156,0.847l0.253,4.135
			l2.583,12.895l3.454,2.676l0.433,0.846l2.15,2.447l-0.778,2.787l0.686,3.75l1.945,0.915l2.126-1.645l2.583-0.481l3.361,1.601
			l2.515-0.594l3.794-0.16l3.979,1.6l2.744-0.297l0.938-2.33l2.491-1.649l0.73,1.693l0.618,2.238l2.308,2.539l-3.772,23.981
			l-5.144,29.009l-4.159-0.319l-8.184-1.532l-9.807-1.829l-12.163-2.378l-12.528-2.504l-8.483-1.84l-9.259-1.668L162.12,180.959z"/>
		<path id="WA" fill="#E3E2E0" d="M93.573,6.362l4.365,1.455l9.7,2.748l8.568,1.94l20.046,5.658l22.956,5.658l15.161,3.395
			l-1.004,3.884l-4.093,13.81l-4.458,20.805l-3.177,16.14l-0.352,9.379l-13.181-3.894l-15.57-3.383l-13.667,0.596l-1.581-1.532
			l-5.326,1.897l-3.977-0.25l-2.721-1.761l-1.579,0.525l-4.205-0.229l-1.875-1.372l-4.777-1.737l-1.442-0.207l-4.986-1.326
			l-1.783,1.508l-5.691-0.343l-4.821-3.794l0.205-0.8l0.068-7.934l-2.125-3.887l-4.115-0.732l-0.365-2.354l-2.514-0.627
			l-2.882-0.535l-1.778,0.97l-2.264-2.91l0.324-2.91l2.748-0.323l1.617-4.042l-2.587-1.132l0.162-3.718l4.365-0.646l-2.749-2.749
			l-1.455-7.113l0.646-2.91v-7.922l-1.778-3.233l2.263-9.376l2.102,0.485l2.425,2.91l2.749,2.586l3.233,1.94l4.527,2.102
			l3.071,0.646l2.91,1.455l3.395,0.97l2.263-0.162v-2.425l1.293-1.131l2.102-1.293l0.323,1.132l0.324,1.778l-2.264,0.485
			l-0.323,2.102l1.778,1.455l1.132,2.425l0.646,1.94l1.455-0.162l0.162-1.293l-0.97-1.293l-0.485-3.233l0.808-1.778l-0.646-1.455
			v-2.263l1.778-3.557l-1.132-2.586L92.12,7.98l0.323-0.809L93.573,6.362z M84.117,12.341l2.021-0.162l0.485,1.374l1.536-1.617
			h2.344l0.809,1.536l-1.536,1.698l0.646,0.808l-0.728,2.021l-1.374,0.404c0,0-0.889,0.081-0.889-0.242
			c0-0.323,1.455-2.586,1.455-2.586l-1.698-0.566l-0.323,1.455l-0.728,0.647l-1.536-2.263L84.117,12.341z"/>
		<path id="TX" fill="#E3E2E0" d="M357.053,333.374l22.691,1.086l31.093,1.143l-2.335,23.456l-0.297,18.153l0.068,2.082l4.344,3.818
			l1.735,0.82l1.811,0.253l0.687-1.255l0.892,0.866l1.735,0.48l1.604-0.729l1.139,0.409l-0.297,3.405l4.275,1.028l2.676,0.822
			l3.954,0.525l2.194,1.829l3.249-1.576l2.785,0.364l2.034,2.786l1.074,0.321l-0.16,1.965l3.089,1.168l2.77-1.805l1.508,0.364
			l2.354,0.161l0.435,1.872l4.641,1.988l2.656-0.205l1.989-4.113h0.341l1.143,1.896l4.438,1.007l3.337,1.211l3.293,0.755l2.15-0.755
			l0.846-2.515h3.702l1.896,0.754l3.064-1.576h0.661l0.363,1.119h4.275l2.403-1.255l1.668,0.297l1.416,1.872l2.88,1.669l3.521,1.075
			l2.743,1.418l2.447,1.622l3.293-0.892l1.938,0.982l0.514,10.14l0.335,9.702l0.686,9.533l0.525,4.047l2.676,4.599l1.075,4.065
			l3.862,6.289l0.55,2.88l0.523,1.007l-0.687,7.496l-2.65,4.39l0.958,2.858l-0.364,2.517l-0.847,7.314l-1.372,2.719l0.604,4.389
			l-5.665,1.585l-9.861,4.524l-0.97,1.939l-2.587,1.939l-2.104,1.454l-1.293,0.811l-5.656,5.334l-2.748,2.102l-5.335,3.233
			l-5.658,2.425l-6.306,3.396l-1.777,1.453l-5.82,3.558l-3.395,0.646l-3.881,5.496l-4.041,0.323l-0.972,1.938l2.266,1.939
			l-1.455,5.496l-1.293,4.526l-1.133,3.88l-0.81,4.525l0.81,2.427l1.777,6.949l0.97,6.145l1.778,2.749l-0.97,1.454l-3.072,1.938
			l-5.657-3.88l-5.497-1.132l-1.293,0.485l-3.231-0.646l-4.203-3.072l-5.173-1.131l-7.601-3.396l-2.102-3.88l-1.293-6.468
			l-3.233-1.938l-0.646-2.263l0.646-0.647l0.323-3.396l-1.293-0.646l-0.646-0.97l1.293-4.365l-1.616-2.263L408,530.781l-3.395-4.364
			l-3.559-6.629l-4.202-2.586l0.16-1.94l-5.333-12.286l-0.809-4.202l-1.778-1.938l-0.162-1.455l-5.981-5.335l-2.586-3.071v-1.132
			l-2.586-2.102l-6.79-1.133l-7.436-0.646l-3.072-2.263l-4.526,1.775l-3.557,1.455l-2.263,3.233l-0.97,3.719l-4.365,6.144
			l-2.425,2.426l-2.586-0.972l-1.778-1.132l-1.94-0.646l-3.88-2.266v-0.646l-1.778-1.939l-5.173-2.102l-7.437-7.76l-2.263-4.688
			v-8.083l-3.233-6.466l-0.485-2.749l-1.617-0.97l-1.132-2.104l-5.011-2.102l-1.293-1.616l-7.113-7.922l-1.293-3.233l-4.688-2.263
			l-1.455-4.365l-2.586-2.91l-1.94-0.482l-0.649-4.678l8.002,0.686l29.035,2.744l29.035,1.6l2.287-23.774l3.886-55.557l1.601-18.748
			l1.372,0.029 M457.23,567.323l-0.566-7.113l-2.748-7.194l-0.565-7.03l1.535-8.244l3.314-6.871l3.476-5.415l3.152-3.557l0.646,0.24
			l-4.769,6.63l-4.365,6.548l-2.021,6.628l-0.323,5.173l0.889,6.144l2.587,7.193l0.485,5.174l0.161,1.454L457.23,567.323z"/>
		<path id="CA" fill="#E3E2E0" d="M136.741,386.754l3.815-0.489l1.486-2.011l0.732-1.941l-3.176-0.09l-1.099-1.764l0.778-1.715
			l-0.046-6.15l2.218-1.328l2.697-2.583l0.411-4.915l1.646-3.497l1.943-2.104l3.269-1.714l1.279-0.73l0.756-1.481l-0.868-0.895
			l-0.961-1.511l-0.937-5.348l-2.904-5.236l0.097-2.787l-2.201-3.248l-14.999-23.229l-19.433-28.714L88.817,250.24l-12.702-19.545
			l1.797-7.208l6.812-25.949l8.116-31.436l-12.365-3.337l-13.489-3.43l-12.574-4.115l-7.544-2.058l-11.431-2.972l-7.051-2.412
			l-1.58,4.725l-0.162,7.437l-5.173,11.801l-3.072,2.587l-0.323,1.131l-1.778,0.809l-1.455,4.203l-0.809,3.233l2.749,4.203
			l1.616,4.204l1.132,3.556l-0.323,6.467l-1.778,3.071l-0.646,5.82l-0.97,3.718l1.778,3.88l2.748,4.526l2.264,4.85l1.293,4.042
			l-0.323,3.233l-0.323,0.485v2.102l5.658,6.305l-0.485,2.425l-0.646,2.263l-0.646,1.94l0.162,8.245l2.102,3.718l1.94,2.586
			l2.748,0.485l0.97,2.749l-1.132,3.557l-2.102,1.616h-1.131l-0.809,3.88l0.485,2.91l3.233,4.365l1.617,5.334l1.455,4.688
			l1.293,3.071l3.395,5.818l1.455,2.588l0.485,2.91l1.617,0.97v2.425l-0.809,1.94l-1.778,7.111l-0.485,1.939l2.425,2.748
			l4.203,0.483l4.527,1.778l3.88,2.104h2.91l2.91,3.069l2.586,4.852l1.131,2.264l3.88,2.102l4.85,0.811l1.455,2.102l0.646,3.232
			l-1.455,0.646l0.323,0.972l3.233,0.809l2.748,0.161l2.91,4.688l3.88,4.203l0.808,2.265l2.586,4.203l0.324,3.231v9.377l0.485,1.778
			l10.023,1.454l19.723,2.749L136.741,386.754z M48.793,337.037l1.293,1.535l-0.162,1.294l-3.233-0.081l-0.566-1.213l-0.646-1.454
			L48.793,337.037z M50.733,337.037l1.212-0.646l3.557,2.104l3.072,1.212l-0.889,0.646l-4.526-0.24l-1.617-1.616L50.733,337.037z
			 M71.426,356.841l1.778,2.344l0.808,0.972l1.536,0.564l0.566-1.455l-0.97-1.776l-2.667-2.021l-1.051,0.162V356.841z
			 M69.971,365.489l1.778,3.15l1.212,1.94l-1.455,0.242l-1.293-1.213c0,0-0.728-1.455-0.728-1.858c0-0.404,0-2.183,0-2.183
			L69.971,365.489z"/>
		<path id="AZ" fill="#EDEDED" d="M137.747,387.5l-2.627,2.159l-0.323,1.454l0.485,0.971l18.914,10.669l12.125,7.599l14.711,8.567
			l16.812,10.023l12.286,2.425l25.128,2.705l2.531-12.507l3.753-27.243l6.965-52.881l4.257-30.968l-24.597-3.679l-27.206-4.57
			l-33.429-6.319l-2.922,18.092l-0.458,0.457l-1.714,2.63l-2.515-0.114l-1.257-2.744l-2.744-0.343l-0.915-1.143h-0.914l-0.915,0.571
			l-1.943,1.026l-0.114,6.976l-0.229,1.715l-0.571,12.574l-1.486,2.172l-0.571,3.312l2.744,4.916l1.257,5.829l0.8,1.029l1.029,0.569
			l-0.115,2.286l-1.6,1.372l-3.429,1.715l-1.943,1.943l-1.486,3.657l-0.571,4.916l-2.858,2.743l-2.058,0.686l-0.114,5.83
			l-0.458,1.715l0.458,0.8l3.658,0.572l-0.571,2.743l-1.486,2.172L137.747,387.5z"/>
		<path id="NV" fill="#D3D3D3" d="M140.658,177.572l20.98,4.511l9.716,1.943l9.259,1.829l6.615,1.633l-0.559,5.865l-3.543,17.329
			l-4.093,19.98l-1.943,9.719l-2.172,13.282l-3.155,16.415l-3.521,15.685l-1.968,10.181l-2.466,16.771l-0.457,1.101l-1.073,2.469
			l-1.873-0.114l-1.097-2.743l-2.743-0.504l-1.396-0.981l-2.038,0.32l-0.915,0.731l-1.302,1.35l-0.435,6.976l-0.55,1.715
			l-0.411,12.093l-1.322,1.714l-1.876-2.262l-14.518-22.748l-19.433-29.035l-22.748-33.836L77.24,230.373l1.636-6.566l6.973-25.949
			l7.888-31.348l33.607,8.143l13.717,2.972"/>
		<path id="UT" fill="#E3E2E0" d="M252.971,309.307l-24.643-3.473l-26.564-4.895l-33.827-6.021l1.588-9.157l3.201-15.203
			l3.315-16.575l2.172-13.603l1.943-8.917l3.772-20.461l3.543-17.49l1.115-5.573l12.717,2.258l12.002,2.058l10.288,1.829
			l8.345,1.372l3.678,0.479l-1.485,10.63l-2.312,13.173l7.808,0.928l16.407,1.805l8.211,0.856l-2.13,21.968l-3.201,22.566
			l-3.753,27.826l-1.666,11.108L252.971,309.307z"/>
		<path id="CO" fill="#EDEDED" d="M378.621,256.796l1.44-21.282l-32.095-3.064l-24.463-2.7l-37.265-4.115l-20.69-2.515
			l-2.629,22.176l-3.201,22.405l-3.753,27.987l-1.505,11.108l-0.25,2.763l33.926,3.795l37.741,4.269l31.96,3.165l16.608,0.847"/>
		<path id="NM" fill="#D3D3D3" d="M282.724,431.045l-0.65-6.123l8.644,0.525l29.516,3.062l28.393,1.439l1.965-22.332l3.726-55.876
			l1.119-19.392l2.014,0.352l-0.014-11.074l-32.204-2.403l-36.938-4.427l-34.465-4.115l-4.2,30.76l-6.965,53.2l-3.752,26.924
			l-2.049,13.309l15.46,1.989l1.293-10.022l16.651,2.586L282.724,431.045z"/>
		<path id="OR" fill="#EDEDED" d="M140.306,176.686l4.298-17.9l4.665-17.879l1.051-4.229l2.354-5.623l-0.615-1.163l-2.515-0.046
			l-1.282-1.67l0.458-1.464l0.503-3.247l4.458-5.487l1.829-1.099l1.143-1.143l1.486-3.566l4.047-5.669l3.565-3.862l0.229-3.451
			l-3.269-2.469l-1.209-4.51l-13.238-3.745l-15.089-3.543l-15.432,0.114l-0.458-1.372l-5.487,2.058l-4.458-0.572l-2.401-1.6
			l-1.257,0.686l-4.687-0.229l-1.715-1.372l-5.258-2.058l-0.8,0.114l-4.344-1.486l-1.943,1.829l-6.173-0.343l-5.944-4.115l0.686-0.8
			L73.732,68l-2.286-3.887l-4.115-0.572l-0.686-2.515l-2.354-0.466l-5.799,2.059l-2.263,6.466l-3.233,10.023l-3.233,6.466
			L44.752,99.64l-6.467,13.58l-8.083,12.61l-1.94,2.91l-0.808,8.568l-1.293,5.981l2.708,3.527l6.729,2.251l11.592,3.293l7.866,2.539
			l12.414,3.634l13.328,3.59l13.168,3.565"/>
		<path id="ND" fill="#D3D3D3" d="M471.306,127.668l-0.363-7.496l-1.989-7.316l-1.829-13.649l-0.457-9.831l-1.99-3.108l-1.6-5.351
			V70.629l0.686-3.887l-2.113-5.499l-28.426-0.564l-18.591-0.646L388.12,58.74l-24.946-1.884l-1.261,14.23l-1.372,15.089
			l-2.259,24.947l-0.486,11.021l56.816,3.764L471.306,127.668z"/>
		<path id="SD" fill="#E3E2E0" d="M472.797,203.181l-0.953-1.081l-1.521-3.627l1.829-3.702l1.051-5.555l-2.583-2.058l-0.297-2.744
			l0.594-2.996l2.15-0.802l0.297-5.735l-0.068-30.086l-0.618-2.972l-4.115-3.59l-0.98-1.989v-1.921l1.896-1.279l1.532-1.854
			l0.185-2.719l-57.385-1.6l-56.172-3.887l-0.767,5.279l-1.613,15.868l-1.345,17.947l-1.6,24.597l16.028,1.029l19.637,1.143
			l17.993,1.303l23.776,1.304l10.745-0.778l2.858,2.287l4.319,2.972l0.983,0.754l3.541-0.891l4.047-0.297l2.743-0.068l3.111,1.211
			l4.548,1.439l3.135,1.761l0.616,1.921l0.914,1.897l0.706-0.481H472.797L472.797,203.181z"/>
		<path id="NE" fill="#D3D3D3" d="M484.244,246.99l1.372,2.675l0.093,2.126l2.354,3.726l2.722,3.152h-5.05l-43.482-0.939
			l-40.787-0.89l-21.191-0.961l1.073-21.328l-33.379-2.744l4.344-44.01l15.546,1.029l20.119,1.143l17.832,1.143l23.777,1.143
			l10.745-0.457l2.058,2.286l4.803,2.972l1.144,0.915l4.344-1.372l3.889-0.458l2.741-0.229l1.829,1.372l5.029,1.601l2.973,1.6
			l0.457,1.601l0.915,2.058h1.828l0.799,0.046l0.982,5.212l2.743,8.026l1.233,4.641l2.126,3.818l0.525,4.938l1.439,4.276l0.55,6.469
			"/>
		<path id="IA" fill="#EDEDED" d="M566.594,201.628l0.17,1.942l2.287,1.14l1.143,1.257l0.344,1.262l3.887,3.202l0.688,2.173
			l-0.802,2.862l-1.486,3.544l-0.8,2.742l-2.175,1.603l-1.715,0.572l-5.483,1.485l-0.688,2.283l-0.799,2.285l0.572,1.372
			l1.716,1.714l-0.002,3.661l-2.169,1.601l-0.459,1.487v2.517l-1.489,0.457l-1.714,1.37l-0.455,1.485l0.455,1.717l-1.374,1.205
			l-2.294-2.691l-1.483-2.626l-8.341,0.799l-10.171,0.571l-25.036,0.688l-13.035,0.229l-9.374,0.229l-1.313,0.122l-1.654-4.472
			l-0.229-6.63l-1.602-4.115l-0.686-5.258l-2.287-3.658l-0.914-4.801l-2.743-7.544l-1.146-5.373l-1.37-2.172l-1.602-2.744
			l1.829-4.344l1.371-5.716l-2.743-2.058l-0.457-2.743l0.914-2.515h1.715h11.545l49.611-0.686l19.877-0.686l1.852,2.747l1.832,2.622
			l0.455,0.804l-1.83,2.749l0.455,4.222l2.517,3.886l2.969,1.824l2.405,0.23L566.594,201.628z"/>
		<path id="MS" fill="#D3D3D3" d="M624.559,466.97l-0.254,1.256h-5.173l-1.455-0.809l-2.102-0.323l-6.79,1.94l-1.778-0.811
			l-2.587,4.203l-1.103,0.778l-1.123-2.488l-1.146-3.887l-3.43-3.2l1.144-7.545l-0.686-0.914l-1.829,0.229l-8.229,0.686
			l-24.234,0.688l-0.457-1.603l0.686-8.002l3.432-6.173l5.258-9.146l-0.914-2.059h1.144l0.688-3.201l-2.286-1.829l0.229-1.829
			l-2.059-4.57l-0.286-5.346l1.372-2.656l-0.398-4.346l-1.371-2.972l1.371-1.372l-1.371-2.058l0.457-1.829l0.914-6.173l2.973-2.743
			l-0.688-2.06l3.657-5.259l2.743-0.914v-2.515l-0.686-1.372l2.742-5.258l2.743-1.146l0.107-3.411l8.675-0.076l24.088-1.94
			l4.58-0.229l0.009,6.372l0.161,16.65l-0.808,31.038l-0.162,14.063l2.748,18.754L624.559,466.97z"/>
		<path id="IN" fill="#D3D3D3" d="M618.421,300.855l0.064-2.859l0.483-4.526l2.266-2.91l1.776-3.88l2.586-4.203l-0.482-5.82
			l-1.778-2.748l-0.323-3.233l0.81-5.496l-0.484-6.952l-1.294-16.004l-1.293-15.358l-0.971-11.72l3.069,0.889l1.455,0.97
			l1.133-0.323l2.103-1.94l2.829-1.617l5.093-0.162l21.986-2.263l5.574-0.533l1.505,15.957l4.251,36.841l0.599,5.771l-0.372,2.263
			l1.229,1.795l0.096,1.373l-2.521,1.6l-3.539,1.551l-3.201,0.55l-0.601,4.867l-4.573,3.312l-2.797,4.01l0.322,2.377l-0.581,1.534
			h-3.325l-1.587-1.617l-2.492,1.262l-2.684,1.503l0.161,3.054l-1.193,0.258l-0.468-1.018l-2.167-1.503l-3.25,1.341l-1.552,3.007
			l-1.438-0.81l-1.454-1.598l-4.466,0.482l-5.593,0.97L618.421,300.855z"/>
		<path id="IL" fill="#E3E2E0" d="M617.805,301.602v-3.604l0.258-4.866l2.379-3.137l1.776-3.766l2.587-3.863l-0.372-5.252
			l-2.005-3.542l-0.097-3.347l0.695-5.27l-0.825-7.178l-1.066-15.778l-1.294-15.017l-0.922-11.639l-0.271-0.921l-0.811-2.587
			l-1.293-3.718l-1.617-1.778l-1.454-2.587l-0.231-5.489l-9.903,1.312l-27.206,1.715l-8.688-0.429l0.229,2.372l2.286,0.686
			l0.915,1.143l0.457,1.829l3.887,3.429l0.688,2.286l-0.688,3.429l-1.829,3.658l-0.687,2.515l-2.286,1.829l-1.829,0.686
			l-5.258,1.372l-0.688,1.829l-0.687,2.058l0.687,1.372l1.828,1.6l-0.229,4.115l-1.828,1.601l-0.688,1.601v2.743l-1.827,0.457
			l-1.602,1.144l-0.229,1.372l0.229,2.058l-1.715,1.314l-1.029,2.801l0.457,3.658l2.287,7.316l7.315,7.545l5.485,3.658l-0.229,4.344
			l0.914,1.372l6.399,0.457l2.743,1.372l-0.686,3.658l-2.286,5.944l-0.687,3.201l2.285,3.885l6.401,5.26l4.572,0.688l2.058,5.028
			l2.059,3.2l-0.914,2.973l1.601,4.115l1.829,2.058l1.943-0.792l0.688-2.164l2.037-1.438l3.235-1.102l3.089,1.181l2.875,1.064
			l0.791-0.21l-0.064-1.239l-1.065-2.768l0.438-2.377l2.28-1.566l2.357-0.987l1.163-0.42l-0.582-1.324l-0.76-2.166l1.245-1.264
			L617.805,301.602z"/>
		<path id="MN" fill="#E3E2E0" d="M471.879,128.471l-0.457-8.459l-1.829-7.316l-1.829-13.489l-0.457-9.831l-1.829-3.429l-1.601-5.03
			V70.629l0.688-3.887l-1.82-5.452l30.133,0.035l0.323-8.245l0.646-0.162l2.265,0.485l1.938,0.809l0.811,5.497l1.452,6.143
			l1.617,1.616h4.852l0.321,1.455l6.307,0.323v2.102h4.85l0.323-1.293l1.132-1.132l2.264-0.646l1.293,0.97h2.91l3.88,2.587
			l5.335,2.425l2.427,0.485l0.482-0.97l1.455-0.485l0.485,2.91l2.587,1.293l0.482-0.485l1.294,0.162v2.102l2.588,0.97h3.069
			l1.617-0.809l3.233-3.233l2.586-0.485l0.809,1.778l0.485,1.293h0.97l0.97-0.808l8.894-0.323l1.776,3.071h0.646l0.714-1.084
			l4.439-0.371l-0.612,2.28l-3.938,1.837l-9.244,4.062l-4.774,2.007l-3.071,2.587l-2.425,3.556l-2.264,3.88l-1.778,0.809
			l-4.526,5.011l-1.293,0.162l-3.842,2.934l-2.814,3.161l-0.229,2.97l0.229,7.778l-1.599,1.6l-5.259,4.114l-1.832,5.717l2.521,3.648
			l0.458,2.52l-1.147,2.974l-0.228,3.659l0.458,7.084l3.426,4.107h2.976l2.511,2.293l3.201,1.365l3.659,5.035l7.088,5.023
			l1.83,2.062l0.234,5.502l-20.588,0.686l-60.249,0.459l-0.338-35.677l-0.457-2.972l-4.115-3.429l-1.145-1.829v-1.601l2.059-1.6
			l1.372-1.372L471.879,128.471z"/>
		<path id="WI" fill="#D3D3D3" d="M612.941,197.181l0.368-2.97l-1.614-4.527l-0.646-6.143l-1.132-2.425l0.97-3.071l0.811-2.91
			l1.455-2.586l-0.647-3.395l-0.646-3.557l0.483-1.778l1.939-2.425l0.162-2.748l-0.811-1.293l0.646-2.586l0.483-3.233l2.748-5.658
			l2.91-6.79l0.161-2.263l-0.323-0.97l-0.808,0.485l-4.203,6.305l-2.749,4.042l-1.939,1.778l-0.809,2.263l-1.455,0.808l-1.131,1.94
			l-1.455-0.323l-0.162-1.778l1.294-2.425l2.104-4.688l1.775-1.617l1.104-2.292l-1.631-0.905l-1.371-1.372l-1.603-10.288
			l-3.657-1.143l-1.371-2.287l-12.573-2.743l-2.518-1.143l-8.229-2.287l-8.229-1.143l-4.171-5.405l-0.527,1.261l-1.133-0.162
			l-0.646-1.132l-2.748-0.808l-1.132,0.162l-1.778,0.97l-0.97-0.647l0.646-1.94l1.938-3.071l1.132-1.132l-1.938-1.455l-2.104,0.808
			l-2.91,1.94l-7.437,3.233l-2.91,0.647l-2.909-0.485l-0.98-0.878l-2.116,2.835l-0.229,2.744v8.459l-1.144,1.601l-5.258,3.886
			l-2.286,5.944l0.457,0.229l2.515,2.058l0.688,3.201l-1.829,3.201v3.887l0.458,6.63l2.972,2.972h3.43l1.829,3.201l3.431,0.458
			l3.887,5.715l7.088,4.115l2.057,2.744l0.915,7.43l0.688,3.315l2.286,1.601l0.229,1.372l-2.058,3.429l0.229,3.201l2.517,3.887
			l2.515,1.143l2.972,0.458l1.345,1.38h9.174l26.065-1.487L612.941,197.181z"/>
		<path id="MO" fill="#D3D3D3" d="M555.789,249.527l-2.521-3.087l-1.143-2.286l-7.773,0.686l-9.83,0.457l-25.378,0.915
			l-13.486,0.229l-7.89,0.115l-2.284,0.114l1.257,2.515l-0.229,2.286l2.517,3.887l3.087,4.115l3.086,2.743l2.286,0.229l1.372,0.915
			v2.972l-1.829,1.601l-0.457,2.286l2.058,3.43l2.515,2.972l2.517,1.829l1.372,11.66l-0.688,35.323l0.229,4.688l0.457,5.384
			l23.433-0.117l23.206-0.686l20.805-0.802l11.655-0.229l2.169,3.426l-0.684,3.31l-3.088,2.4l-0.572,1.839l5.379,0.456l3.896-0.686
			l1.719-5.494l0.649-5.854l2.318-2.025l1.713-1.486l2.058-1.028l0.114-2.859l0.574-1.716l-1.031-1.748l-2.745,0.145l-2.169-2.625
			l-1.374-4.229l0.804-2.521l-1.944-3.428l-1.831-4.574l-4.799-0.801l-6.969-5.6l-1.722-4.113l0.801-3.201l2.061-6.058l0.459-2.864
			l-1.949-1.031l-6.854-0.798l-1.028-1.712l-0.111-4.23l-5.485-3.431l-6.978-7.771l-2.286-7.316l-0.229-4.225L555.789,249.527z"/>
		<path id="AR" fill="#E3E2E0" d="M590.952,344.953l-3.849,0.938l-6.174-0.457l0.688-2.972l3.2-2.744l0.457-2.286l-1.828-2.972
			l-10.977,0.457l-20.805,0.915l-23.319,0.686l-23.317,0.457l1.601,6.858v8.23l1.371,10.975l0.229,37.837l2.284,1.943l2.974-1.372
			l2.743,1.144l0.431,10.323l22.886-0.143l18.864-0.803l10.121-0.195l1.146-2.093l-0.286-3.55l-1.824-2.972l1.6-1.485l-1.6-2.512
			l0.685-2.51l1.368-5.605l2.519-2.062l-0.686-2.284l3.657-5.372l2.742-1.368l-0.112-1.494l-0.347-1.825l2.856-5.599l2.403-1.257
			l0.384-3.428l1.771-1.241l0.857-4.234l-1.342-4.011l4.041-2.377l0.551-2.021l1.235-4.268L590.952,344.953z"/>
		<path id="OK" fill="#D3D3D3" d="M375.343,322.571l-10.688-0.457l-6.43-0.485l0.257,0.199l-0.704,10.423l21.965,1.406l32.056,1.304
			l-2.335,24.419l-0.457,17.832l0.229,1.603l4.344,3.656l2.058,1.145l0.688-0.229l0.686-2.058l1.371,1.829h2.061v-1.371l2.741,1.371
			l-0.457,3.887l4.115,0.229l2.517,1.144l4.113,0.687l2.517,1.828l2.286-2.058l3.43,0.687l2.515,3.431h0.914v2.286l2.286,0.686
			l2.287-2.286l1.828,0.688h2.516l0.914,2.515l4.801,1.829l1.372-0.687l1.829-4.115h1.145l1.144,2.058l4.115,0.688l3.658,1.371
			l2.972,0.915l1.829-0.915l0.686-2.517h4.346l2.058,0.915l2.744-2.058h1.143l0.688,1.6h4.115l1.6-2.058l1.829,0.458l2.058,2.515
			l3.201,1.829l3.2,0.914l1.939,1.119l-0.389-37.217l-1.372-10.977l-0.161-8.872l-1.438-6.538l-0.778-7.18l-0.067-3.813
			l-12.138,0.316l-46.41-0.457l-45.038-2.058L375.343,322.571z"/>
		<path id="KS" fill="#E3E2E0" d="M503.381,325.13l-12.618,0.205l-46.09-0.457l-44.557-2.058l-24.63-1.26l4.144-64.72l21.833,0.8
			l40.466,1.372l44.125,0.458h5.098l3.247,3.225l2.768,0.229l0.89,1.075v2.009l-1.827,1.601l-0.457,2.607l2.219,3.59l2.515,3.133
			l2.516,1.989l1.052,11.178L503.381,325.13z"/>
		<path id="LA" fill="#EDEDED" d="M602.202,472.995l-1.029-2.616l-1.144-3.093l-3.315-3.541l0.916-6.75l-0.118-1.142l-1.262,0.342
			l-8.229,0.913l-25.028,0.459l-0.687-2.396l0.913-8.456l3.315-5.943l5.031-8.691l-0.573-2.398l1.256-0.681l0.459-1.952
			l-2.286-2.056l-0.111-1.942l-1.829-4.346l-0.456-5.941l-9.727,0.113l-19.205,0.915l-22.205,0.028l0.029,9.574l0.686,9.371
			l0.688,3.889l2.516,4.115l0.914,5.027l4.346,5.487l0.229,3.2l0.688,0.687l-0.688,8.459l-2.972,5.029l1.601,2.058l-0.687,2.517
			l-0.688,7.314l-1.372,3.2l0.123,3.617l4.688-1.521l8.083-0.321l10.346,3.557l6.467,1.132l3.718-1.455l3.233,1.132l3.232,0.972
			l0.81-2.104l-3.233-1.132l-2.587,0.485l-2.748-1.617c0,0,0.161-1.293,0.811-1.455c0.646-0.161,3.071-0.97,3.071-0.97l1.776,1.455
			l1.778-0.972l3.231,0.646l1.454,2.425l0.324,2.264l4.526,0.323l1.776,1.778l-0.809,1.616l-1.293,0.809l1.616,1.616l8.404,3.557
			l3.559-1.293l0.97-2.425l2.587-0.647l1.778-1.452l1.293,0.97l0.809,2.91l-2.264,0.808l0.646,0.646l3.396-1.293l2.263-3.396
			l0.811-0.485l-2.104-0.321l0.811-1.616l-0.162-1.455l2.102-0.485l1.133-1.293l0.646,0.81c0,0-0.161,3.07,0.646,3.07
			c0.81,0,4.202,0.646,4.202,0.646l4.042,1.938l0.972,1.455h2.909l1.132,0.973l2.264-3.072v-1.455h-1.293l-3.396-2.748l-5.817-0.809
			l-3.233-2.265l1.132-2.748l2.266,0.323l0.161-0.646l-1.778-0.973v-0.482h3.232l1.777-3.071l-1.293-1.938l-0.323-2.748
			l-1.455,0.159l-1.938,2.104l-0.646,2.587l-3.069-0.646l-0.973-1.776l1.778-1.94l2.021-1.775L602.202,472.995z"/>
		<path id="VA" fill="#E3E2E0" d="M828.906,269.246l-0.146-1.947l6.453-2.55l-0.771,3.218l-2.92,3.779l-0.418,4.586l0.462,3.391
			l-1.828,4.978l-2.164,1.916l-1.472-4.641l0.445-5.449l1.587-4.183L828.906,269.246z M831.188,297.547l-58.176,12.575
			l-37.427,5.279l-6.679-0.375l-2.585,1.927l-7.339,0.221l-8.384,0.979l-8.927,0.95l8.48-4.947l-0.015-2.074l1.521-2.146
			l10.554-11.5l3.947,4.479l3.783,0.963l2.543-1.141l2.235-1.312l2.537,1.346l3.914-1.43l1.877-4.557l2.603,0.541l2.854-2.131
			l1.799,0.493l2.827-3.676l0.351-2.083l-0.965-1.276l1.004-1.867l5.272-12.277l0.616-5.735l1.229-0.523l2.18,2.443l3.937-0.301
			l1.931-7.573l2.794-0.561l1.05-2.741l2.58-2.347l1.268-2.342l1.504-3.353l0.085-5.067l9.822,3.823
			c0.681,0.34,0.655-4.784,0.655-4.784l4.051,1.377l-0.462,2.629l8.156,2.939l1.293,1.794l-0.868,3.682l-1.264,1.326l-0.506,1.746
			l0.494,2.403l1.959,1.278l3.918,1.445l2.947,0.968l4.856,0.942l2.151,2.088l3.189,0.402l0.868,1.2l-0.439,4.69l1.374,1.103
			l-0.479,1.931l1.229,0.79l-0.222,1.385l-2.694-0.095l0.091,1.616l2.279,1.543l0.121,1.412l1.773,1.786l0.491,2.524l-2.555,1.381
			l1.572,1.494l5.801-1.686L831.188,297.547z"/>
		<path id="DC" fill="#D3D3D3" d="M801.757,253.844l-1.077-1.637l-1.014-0.842l1.1-1.616l2.232,1.511L801.757,253.844z"/>
		<path id="PR" fill="#D3D3D3" d="M569.216,530.231l0.858-2.144l1.713,0.429l1.713,1.284l7.284,0.857l7.284-0.43h2.999l2.568,0.855
			l1.715-1.285h2.144l5.141,0.43l5.144,1.284l1.714,1.714h2.999l0.428,2.571l-0.428,1.714l-3.427,0.43l-2.146,0.855l-0.856,2.144
			l-1.284,2.143l-2.569,1.285h-5.143h-4.283l-2.143-0.856l0,0h-4.284l-2.145-0.855l-3.428,0.855H576.5l-2.142-1.714l-2.571,0.856
			l-3.428,0.429l-0.431-2.143l0.856-1.285l0.855-2.144l-0.855-2.569l-3.426-2.571l1.282-0.856L569.216,530.231z M615.928,541.806
			l-1.856,0.62l3.717,1.238l4.956-1.238l1.239-1.856l-3.1,0.619L615.928,541.806z M624.601,537.47l-1.549-0.93l2.168-1.549
			l0.62,1.549L624.601,537.47z"/>
		<path id="VI" fill="#D3D3D3" d="M645.381,524.068l-1.459,1.095l-1.823,1.093l0.364,1.459l1.823,0.729l2.554-0.364l1.093,1.825
			h1.823l1.095-1.096l4.014-0.729l1.821-0.364l1.461-1.095l-0.729-1.457h-2.188l-5.107-1.095L645.381,524.068L645.381,524.068z
			 M659.833,525.47l-0.284,0.992l0.854,0.497l1.994-0.248l1.424,0.745l1.139-0.249l0.286-1.243l0,0l1.423-0.992l0.285-0.993
			l-1.142-0.494l-1.709,0.494l-1.991-0.74l-0.854,0.74l-0.285,0.993L659.833,525.47z M654.528,545.889l2.604-0.65l1.63,0.327
			l2.279-1.306l0.979,0.326l0.648,0.979l0.979,1.63l1.953-0.979l0.979,0.65l4.271-0.588l0.483,2.429l-1.823,0.765h-3.257
			l-5.539,1.63l-2.278-0.322l-3.91,0.647l-1.303-0.647l-0.979,0.647l-2.607,0.328c0,0-1.537-0.498-0.324-1.306
			c1.953-1.302,0.979-3.583,0.979-3.583L654.528,545.889z"/>
		<path id="GU" fill="#D3D3D3" d="M584.942,560.61c0.042,0,0.084,0,0.126,0c0.428,0,0.839,0.14,1.259,0.21
			c0.552,0.092,0.796,0.752,1.26,0.942c0.494,0.207,0.638,0.639,1.007,0.945c0.108,0.09,0.217,0.271,0.252,0.314
			c0.727,0.604-0.755,1.181,0.883,0.84c0.036-0.008,1.297,0.479,1.512,0.522c0.619,0.129,1.287,0.111,1.764,0.21
			c0.602,0.126-0.604,0.902-0.882,1.364c-0.261,0.438-0.126,1.088-0.126,1.575c0,0.613-0.133,0.968-0.252,1.364
			c-0.146,0.479-0.458,0.801-0.756,1.049c-0.313,0.262-0.9,0.529-1.387,0.63c-0.646,0.135-0.594,0.525-1.511,0.525
			c-0.438,0-0.499,1.04-0.63,1.259c-0.383,0.639-1.135,0.004-1.386,0.84c-0.162,0.543-0.497,0.52-0.881,0.84
			c-0.361,0.301-0.903,0.481-1.262,0.63c-0.606,0.254-0.984,0.524-1.763,0.524c-0.309,0-0.896,0.927-1.008,1.05
			c-0.369,0.41-0.541,0.661-0.881,0.944c-0.15,0.125-1.189-0.095-1.639,0c-0.064,0.014,0,1.433,0,1.572
			c0,0.247-0.82,0.638-0.883,0.735c-0.112,0.191,0.252,1.243,0.252,1.574c0,0.516-0.017,1.104-0.125,1.469
			c-0.145,0.481-0.124,1.05-0.756,1.05c-0.661,0,0.365,0.829,0.504,0.944c0.222,0.184,0.177,1.108,0.252,1.365
			c0.205,0.687-0.378,0.925-0.378,1.469c0,0.035-1.016,0.581-1.134,0.63c-0.361,0.15-0.692,0.579-1.008,0.84
			c-0.481,0.401-0.583,0.591-1.007,0.944c-0.414,0.345-0.999,0.312-1.638,0.42c-0.584,0.098-1.076,0.21-1.765,0.21
			c-0.386,0-0.893-0.639-1.133-0.84c-0.545-0.453-0.713,0.25-1.008-0.734c-0.028-0.094-0.408-0.837-0.504-1.154
			c-0.17-0.565-0.123-0.937-0.252-1.362c-0.112-0.374-0.49-0.586-0.632-1.05c-0.158-0.537-0.08-1.082-0.377-1.574
			c-0.304-0.506-0.882-0.312-0.882-1.155c0-0.719,0.342-0.778,0.63-1.259c0.197-0.329,0.399-0.912,0.504-1.26
			c0.104-0.352,0.556-0.925,0.757-1.262c0.05-0.083-0.126-0.427-0.126-0.629l-3.148-2.414c0.556-0.926,0.69-0.593,1.638,0
			c0.518,0.322,0.936,0.33,1.513,0.209c0.476-0.099,0.445-1.26,0.445-0.268c0,0.729-0.167-0.111,0.51-0.315
			c1.164-0.353,1.054-0.288,0.053,0.271c-0.227,0.125,1.054,0.471,0.756-0.524c-0.157-0.521-1.012,0.015-0.756-0.84
			c0.094-0.312,1.919,0.085,2.015,0.104c0.547,0.113,0.948-0.63,1.513-0.63c0.548,0,1.231-0.21,1.89-0.21
			c0.483,0,1.377-0.233,1.763-0.313c0.775-0.161,1.119-0.201,1.637-0.524c0.356-0.223-0.22-1.363-0.251-1.47
			c-0.163-0.544,1.743-0.003,1.765,0c0.812,0.136,0.902-0.707,1.008-1.05c0.203-0.682,0.312-0.864,1.007-1.154
			c0.771-0.321,1.008-0.812,1.008-1.469c0-0.984,0.438-1.29,0.63-2.102c0.146-0.612-0.145-0.782,0.377-1.362
			c0.553-0.612,0.945-0.842,1.262-1.364c0.283-0.474,0.252-0.87,0.252-1.47c0-0.555,0.155-0.604-0.378-1.052"/>
		<path id="MP" fill="#D3D3D3" d="M644.48,558.693l1.072-0.723l0.901-0.598L644.48,558.693z M644.561,564.251l1.979,1.978
			l-0.176-1.87L644.561,564.251z M649.17,570.181l1.318,3.294l0,0l1.316-3.294H649.17z M654.441,576.769v3.294l1.976,0.658
			l0.659-3.293L654.441,576.769z M663.088,585.209l-1.729,3.087l0.574,1.854l2.884,1.233l1.151-1.854v-3.088L663.088,585.209z"/>
		<path id="AS" fill="#D3D3D3" d="M609.496,582.5c0.225-0.104,0.55-0.645,0.703-0.924c0.259-0.474-0.251-0.564,0.391-0.711
			c0.317-0.072,0.679,0.403,0.78,0.498c0.248,0.226,0.409,0.429,0.546-0.071c0.056-0.203,0.706-0.908,0.938-1.065
			c0.308-0.209,0.562-0.227,0.857-0.498c0.249-0.226,0.479-0.434,0.703-0.639c0.281-0.257,0.431-0.357,0.624-0.711
			c0.181-0.328,0.438-0.541,0.625-0.711c0.417-0.379-1.022-0.213-1.64-0.213c-0.162,0,0.279-0.638,0.312-0.781
			c0.094-0.429,0.214-0.404,0.624-0.498c0.587-0.133,0.625,0.135,0.625,0.569c0,0.289,0.469-0.431,0.546-0.711
			c0.107-0.392,0.365-0.559,0.703-0.711c0.331-0.15,0.699-0.247,0.938-0.354c0.412-0.188,0.402-0.161,0.312-0.498
			c-0.057-0.207,0.06-0.641,0-0.853c-0.124-0.451,0.504-0.078,0.234-0.568c-0.117-0.213-0.803-0.364-0.938-0.426
			c-0.39-0.178-0.741-0.124-1.093-0.284c-0.421-0.19-0.344-0.327-0.078-0.568c0.149-0.136,0.967,0.044,1.093,0.07
			c0.371,0.085,0.768,0.071,1.171,0.071c0.523,0,0.819,0.018,1.249,0.213c0.322,0.147,0.233,0.433,0.233,0.853
			c0,0.466-0.137,0.682,0.312,0.782c0.549,0.124,0.659,0.029,1.017-0.214c0.146-0.099,1.143-0.193,1.249-0.213
			c0.421-0.076,0.659-0.245,0.856-0.426c0.284-0.259,0.662-0.461,0.858-0.642c0.292-0.266,0.566-0.342,0.938-0.427
			c0.478-0.106,0.673,0.188,0.858,0.355c0.188,0.172,0.078,0.749,0.078,0.994c0,0.222,1.429-0.33,1.481-0.354
			c0.419-0.19,0.678-0.119,0.938-0.354c0.364-0.331,0.12-0.56,0.703-0.427c0.443,0.103,0.713-0.127,1.092-0.214
			c0.411-0.093,0.312-0.341,0.312-0.781c0-0.354,0-0.711,0-1.063c0-0.503-0.312-0.409-0.702-0.498
			c-0.321-0.073-0.768,0.129-0.938,0.284c-0.335,0.305-0.424,0.191-0.547,0.64c-0.114,0.417-0.163,0.466-0.546,0.64
			c-0.185,0.084-0.526-0.354-0.938-0.354c-0.441,0-0.611-0.243-0.856-0.355c-0.345-0.154-0.614-0.213-1.093-0.213
			c-0.176,0-0.432,0.418-0.781,0.497c-0.315,0.072-0.912,0-1.016,0c-0.32,0,0.373-0.771,0.392-0.78
			c0.432-0.195,0.965,0.038,0.078-0.283c-0.349-0.126-0.826,0.069-1.171,0.069c-0.568,0-0.624,0.077-0.624,0.568
			c0,0.484-0.291,0.426-0.781,0.426c-0.303,0-0.174-0.644-0.468-0.71c-0.485-0.108-0.441,0.312-0.625-0.354
			c-0.071-0.264-0.648,0.021-0.858,0.213c-0.229,0.21-0.742-0.079-0.156-0.213c0.502-0.114-0.247-0.568-0.546-0.568
			c-0.521,0-0.438,0.32-0.702,0.64c-0.261,0.316-0.646,0.078-0.779,0.568c-0.067,0.248-0.604,0.31-0.858,0.426
			c-0.389,0.18-0.683,0.349-1.015,0.498c-0.485,0.223-1.082,0.144-1.641,0.144c-0.291,0,0.156,0.517,0.156,0.78
			c0,0.354,0,0.71,0,1.065c0,0.578-0.083,0.445-0.625,0.568c-0.293,0.064-0.515-0.284-0.937-0.284c-0.516,0-0.625,0.224-0.625,0.64
			c0,0.455-0.432,0.195-0.78,0.355c-0.431,0.193-0.78,0.286-0.78-0.214c0-0.376-0.434-0.419-0.78-0.497
			c-0.507-0.115-0.517,0.342-0.856,0.497c-0.387,0.176-0.801,0.113-1.171,0.282c-0.104,0.049-0.314-0.516-0.548-0.566
			c-0.399-0.091-0.95,0.057-1.325,0.143c-0.452,0.104-0.226,0.426-0.781,0.426c-0.424,0-0.787,0.109-1.015,0.216
			c-0.212,0.096,0.351,0.426-0.548,0.426c-0.571,0-0.652,0.055-0.856,0.427c-0.231,0.421-0.046,0.562-0.703,0.71
			c-0.197,0.045-0.574,0.457-0.624,0.642c-0.083,0.302-1.045,0.26-0.312,0.427c0.396,0.089,0.731,0.112,1.172,0.213
			c0.378,0.086,0.844,0.242,1.093,0.354c0.258,0.117,0.941-0.036,1.093-0.069c0.388-0.088,0.361-0.229,0.858,0
			c0.303,0.138,0.256,0.507,0.547,0.64c0.274,0.125,1.104,0.071,1.403,0.071c0.071,0,0.134,0.909,0.155,0.994
			c0.06,0.209,0.156,0.638,0.234,0.924c0.023,0.09,0.749,0.396,0.857,0.497c0.218,0.196,0.506,0.293,0.779,0.354
			c0.448,0.104,0.627,0.073,0.859,0.284C609.658,581.795,609.371,582.213,609.496,582.5z"/>
	</g>
</g>
</svg>
