<?xml version="1.0" encoding="utf-8"?>
<!-- Generator: Adobe Illustrator 15.0.2, SVG Export Plug-In  -->
<!DOCTYPE svg PUBLIC "-//W3C//DTD SVG 1.1//EN" "http://www.w3.org/Graphics/SVG/1.1/DTD/svg11.dtd" [
	<!ENTITY ns_flows "http://ns.adobe.com/Flows/1.0/">
]>
<svg version="1.1"
	 xmlns="http://www.w3.org/2000/svg" xmlns:xlink="http://www.w3.org/1999/xlink" xmlns:a="http://ns.adobe.com/AdobeSVGViewerExtensions/3.0/"
	 x="0px" y="0px" width="157px" height="32px" viewBox="0 0 157 32" overflow="visible" enable-background="new 0 0 157 32"
	 xml:space="preserve">
<defs>
</defs>
<path fill="#FFFFFF" d="M8.652,9.36c0.062-0.076,0.128-0.161,0.201-0.256l0.001-0.003c0.111-0.146,0.199-0.269,0.275-0.39
	c0.004-0.006,0.007-0.014,0.01-0.018c0.537-0.409,1.01-0.756,1.388-1.015c0.426-0.292,0.758-0.487,0.937-0.571l0.007-0.004
	c0.71-0.347,1.661-0.549,2.874-0.549c1.397,0.006,2.484,0.365,3.413,1.078c0.926,0.713,1.714,1.829,2.324,3.438
	c0.188,0.495,0.707,0.785,1.229,0.688c1.506-0.283,2.648-0.516,3.45-0.707c0.401-0.097,0.716-0.18,0.973-0.265
	c0.13-0.042,0.242-0.083,0.375-0.146c0.065-0.033,0.138-0.07,0.231-0.139c0.091-0.074,0.225-0.162,0.367-0.429
	c0.128-0.258,0.15-0.562,0.059-0.837C25.773,6.247,24.2,3.9,22.03,2.33C19.86,0.756,17.146-0.003,14.015,0
	c-2.169-0.001-4.161,0.405-5.932,1.241c-1.771,0.832-3.312,2.09-4.588,3.725c-2.346,3-3.5,6.77-3.495,11.157
	c-0.005,4.319,1.166,8.037,3.54,10.983l0.002,0.004c1.279,1.583,2.812,2.799,4.568,3.605c1.758,0.807,3.726,1.201,5.868,1.201
	c3.129,0.003,5.846-0.772,8.02-2.372c2.176-1.597,3.757-3.977,4.766-7.01c0.1-0.297,0.068-0.618-0.088-0.891
	c-0.155-0.271-0.415-0.461-0.722-0.528c-2.056-0.441-3.6-0.757-4.642-0.957c-0.546-0.104-1.08,0.213-1.25,0.743
	c-0.508,1.582-1.252,2.659-2.209,3.369c-0.961,0.706-2.189,1.087-3.82,1.09c-1.252,0-2.28-0.24-3.138-0.689
	c-0.858-0.451-1.567-1.114-2.164-2.06c-0.992-1.571-1.537-3.746-1.537-6.58c0.001-2.224,0.449-4.398,1.353-6.551
	C8.58,9.439,8.619,9.4,8.652,9.36z"/>
<path fill="#FFFFFF" d="M36.17,0.934h-4.838c-0.289,0-0.571,0.118-0.774,0.323c-0.205,0.205-0.32,0.484-0.32,0.774v28
	c0,0.289,0.115,0.572,0.32,0.776c0.204,0.202,0.486,0.32,0.774,0.32h4.838c0.289,0,0.57-0.118,0.775-0.32
	c0.204-0.205,0.321-0.487,0.321-0.776v-28c0-0.29-0.117-0.569-0.321-0.774C36.74,1.051,36.458,0.934,36.17,0.934z"/>
<path fill="#FFFFFF" d="M61.97,0.788H41.74c-0.288,0-0.571,0.118-0.774,0.321c-0.205,0.204-0.321,0.486-0.321,0.775v4.397
	c0,0.289,0.116,0.571,0.321,0.775c0.204,0.205,0.486,0.322,0.774,0.322h6.602v22.578c0,0.289,0.116,0.571,0.32,0.775
	c0.204,0.205,0.487,0.32,0.775,0.32h4.837c0.289,0,0.571-0.116,0.775-0.32c0.204-0.205,0.322-0.486,0.322-0.775V7.378h6.599
	c0.29,0,0.572-0.117,0.775-0.322c0.204-0.205,0.323-0.487,0.323-0.775V1.884c0-0.289-0.119-0.571-0.323-0.775
	C62.542,0.906,62.26,0.788,61.97,0.788z"/>
<path fill="#FFFFFF" d="M72.308,0.934h-4.84c-0.288,0-0.57,0.118-0.774,0.323c-0.204,0.205-0.321,0.484-0.321,0.774v28
	c0,0.289,0.117,0.572,0.321,0.776c0.204,0.202,0.486,0.32,0.774,0.32h4.84c0.288,0,0.57-0.118,0.773-0.32
	c0.205-0.205,0.321-0.487,0.321-0.776v-28c0-0.29-0.116-0.569-0.321-0.774C72.878,1.051,72.595,0.934,72.308,0.934z"/>
<path fill="#FFFFFF" d="M98.126,0.86H79.435c-0.289,0-0.57,0.118-0.775,0.322c-0.204,0.205-0.32,0.486-0.32,0.774v4.325
	c0,0.289,0.116,0.571,0.32,0.775c0.205,0.205,0.486,0.322,0.775,0.322H90.18l-0.218,0.337c-0.381,0.5-0.733,1-1.049,1.503h0.001
	c-1.744,2.657-3.487,5.321-5.229,7.99l0.005-0.008c-2.079,3.123-3.91,5.686-5.482,7.679c-0.154,0.195-0.235,0.431-0.235,0.679v4.397
	c0,0.289,0.115,0.571,0.32,0.775c0.205,0.205,0.487,0.32,0.776,0.32h19.058c0.288,0,0.571-0.116,0.775-0.32
	c0.204-0.205,0.32-0.486,0.32-0.775v-4.323c0-0.289-0.116-0.571-0.32-0.774c-0.205-0.205-0.487-0.322-0.775-0.322H87.004
	c1.189-1.827,3.043-4.614,5.562-8.352c1.903-2.825,3.392-5.003,4.464-6.53c0.535-0.761,0.966-1.362,1.288-1.792
	c0.161-0.216,0.293-0.389,0.395-0.514c0.099-0.125,0.176-0.209,0.177-0.209c0.214-0.207,0.33-0.487,0.33-0.784V1.957
	c0-0.288-0.116-0.569-0.32-0.774C98.697,0.979,98.414,0.86,98.126,0.86z"/>
<path fill="#FFFFFF" d="M123.964,24.611h-12.465v-5.504h10.559c0.289,0,0.571-0.118,0.775-0.321c0.203-0.206,0.32-0.487,0.32-0.776
	v-4.323c0-0.29-0.117-0.573-0.32-0.776c-0.204-0.204-0.487-0.322-0.775-0.322h-10.559V7.451h11.66c0.287,0,0.57-0.118,0.773-0.322
	c0.205-0.203,0.322-0.485,0.322-0.773V1.957c0-0.288-0.118-0.569-0.322-0.774c-0.203-0.204-0.487-0.322-0.773-0.322h-17.593
	c-0.289,0-0.571,0.118-0.774,0.322c-0.204,0.205-0.321,0.486-0.321,0.774v28.074c0,0.289,0.118,0.572,0.321,0.776
	c0.203,0.202,0.485,0.32,0.774,0.32h18.398c0.289,0,0.572-0.118,0.776-0.32c0.204-0.205,0.32-0.487,0.32-0.776v-4.324
	c0-0.289-0.116-0.571-0.32-0.775C124.536,24.728,124.253,24.611,123.964,24.611z"/>
<path fill="#FFFFFF" d="M156.35,1.108c-0.206-0.203-0.488-0.321-0.776-0.321h-4.837c-0.29,0-0.571,0.118-0.775,0.321
	c-0.203,0.204-0.321,0.486-0.321,0.775V18.42c-0.935-1.381-2.08-3.051-3.443-5.028c-2.366-3.424-4.161-6.115-5.381-8.06l0.001,0.002
	c-0.445-0.71-0.791-1.247-1.053-1.627c-0.132-0.191-0.239-0.338-0.345-0.47c-0.046-0.055-0.093-0.11-0.154-0.169
	c-0.466-0.767-0.831-1.358-1.087-1.767c-0.201-0.32-0.55-0.513-0.928-0.513h-5.424c-0.288,0-0.57,0.118-0.774,0.321
	c-0.205,0.204-0.321,0.486-0.321,0.775v28.073c0,0.289,0.117,0.571,0.321,0.775c0.204,0.205,0.486,0.32,0.774,0.32h4.838
	c0.288,0,0.571-0.116,0.775-0.32c0.204-0.205,0.32-0.486,0.32-0.775V13.399c0.068,0.098,0.133,0.191,0.206,0.294
	c1.188,1.688,2.826,4,4.915,6.931c3.222,4.519,5.33,7.831,6.284,9.81c0.181,0.378,0.567,0.619,0.986,0.619h5.424
	c0.288,0,0.57-0.116,0.776-0.32c0.204-0.205,0.32-0.486,0.32-0.775V1.884C156.67,1.595,156.553,1.312,156.35,1.108z"/>
</svg>
