<?xml version="1.0" encoding="utf-8"?>
<!-- Generator: Adobe Illustrator 15.0.2, SVG Export Plug-In  -->
<!DOCTYPE svg PUBLIC "-//W3C//DTD SVG 1.1//EN" "http://www.w3.org/Graphics/SVG/1.1/DTD/svg11.dtd" [
	<!ENTITY ns_flows "http://ns.adobe.com/Flows/1.0/">
]>
<svg version="1.1"
	 xmlns="http://www.w3.org/2000/svg" xmlns:xlink="http://www.w3.org/1999/xlink" xmlns:a="http://ns.adobe.com/AdobeSVGViewerExtensions/3.0/"
	 x="0px" y="0px" width="157px" height="157px" viewBox="0 0.159 157 157"
	 overflow="visible" enable-background="new 0 0.159 157 157" xml:space="preserve">
<defs>
</defs>
<rect fill="#FFFFFF" width="157" height="157.159"/>
<path fill="#EF4136" d="M124.464,60.138c-0.007-0.003-3.505-1.861-19.165-1.861c-12.438,0.001-23.027,2.58-31.679,7.25
	c-8.653,4.68-15.423,11.443-20.244,20.143c-2.37,4.287-4.256,9.052-5.624,14.267c-1.159,6.763-1.415,11.248-1.416,13.872
	c0,1.724,0.109,2.649,0.143,2.894c0.197,1.439,1.008,2.732,2.216,3.537c1.207,0.801,2.713,1.052,4.116,0.679
	c0.18-0.048,3.68-0.987,8.965-3.205c4.515-1.897,10.339-4.737,16.501-8.773c5.675,4.2,11.572,7.032,16.317,8.909
	c5.612,2.213,9.634,3.082,9.833,3.126c1.455,0.312,2.98-0.032,4.159-0.939c1.179-0.904,1.904-2.292,1.977-3.777
	c0.003-0.078,0.027-0.577,0.027-1.459c0-3.516-0.362-13.143-3.692-26.64c14.174-12.061,19.349-20.411,19.617-20.855
	c0.734-1.209,0.93-2.673,0.541-4.032C126.668,61.915,125.726,60.775,124.464,60.138z"/>
<path fill="#2B4078" d="M75.94,52.02c5.016-2.317,10.71-3.886,17.059-4.468c-5.977-13.125-10.416-17.72-10.95-18.244
	c-1.994-1.95-5.167-1.932-7.138,0.04c-0.371,0.373-1.896,2.003-4.441,6.263c-2.308,3.866-5.455,9.912-9.312,19.165
	c-20.013,1.623-27.775,4.977-28.428,5.27c-2.469,1.119-3.622,3.964-2.627,6.487c0.227,0.576,1.26,2.891,4.544,6.87
	c2.559,3.1,6.52,7.229,12.531,12.341c1.6-4.767,3.899-9.753,7.014-14.531C59.172,63.578,66.291,56.472,75.94,52.02z"/>
</svg>
