<?xml version="1.0" encoding="utf-8"?>
<!-- Generator: Adobe Illustrator 15.0.2, SVG Export Plug-In  -->
<!DOCTYPE svg PUBLIC "-//W3C//DTD SVG 1.1//EN" "http://www.w3.org/Graphics/SVG/1.1/DTD/svg11.dtd" [
	<!ENTITY ns_flows "http://ns.adobe.com/Flows/1.0/">
]>
<svg version="1.1"
	 xmlns="http://www.w3.org/2000/svg" xmlns:xlink="http://www.w3.org/1999/xlink" xmlns:a="http://ns.adobe.com/AdobeSVGViewerExtensions/3.0/"
	 x="0px" y="0px" viewBox="0 0 59 124" overflow="visible" enable-background="new 0 0 59 124"
	 xml:space="preserve">
<defs>
</defs>
<path fill="#E6E7E8" d="M52.743,93.658l-3.125-6.976l-5.374,2.393c-1.305-1.753-2.9-3.208-4.705-4.344l2.355-5.919l-7.291-2.656
	l-2.351,5.92c-2.126-0.306-4.345-0.238-6.52,0.242l-2.343-5.244l-7.184,3.21l2.337,5.254c-1.82,1.311-3.341,2.906-4.536,4.69
	l-5.961-2.213L5.169,95.22l5.962,2.226c-0.354,2.098-0.326,4.259,0.112,6.396l-5.367,2.392l3.119,6.979l5.371-2.398
	c1.296,1.754,2.893,3.212,4.688,4.355l-2.331,5.904l7.28,2.665l2.346-5.915c2.133,0.292,4.331,0.229,6.532-0.248l2.334,5.252
	l7.18-3.213l-2.335-5.253c1.816-1.316,3.336-2.911,4.536-4.704l5.968,2.218l2.873-7.208l-5.963-2.21
	c0.354-2.103,0.332-4.266-0.104-6.405L52.743,93.658z M34.961,97.416c1.399,3.125-0.003,6.791-3.125,8.189
	c-3.124,1.394-6.787-0.004-8.187-3.129c-1.398-3.122,0.006-6.785,3.127-8.182C29.903,92.894,33.568,94.292,34.961,97.416z"/>
<path fill="#FFFFFF" d="M39.527,67.702H19.229V57.688c0-3.651,0.468-6.389,1.402-8.214c0.936-1.825,2.917-4.295,5.944-7.41
	l9.079-9.348c1.336-1.604,2.002-3.673,2.002-6.21c0-2.538-0.712-4.652-2.136-6.345c-1.424-1.689-3.293-2.537-5.609-2.537
	s-4.25,1.003-5.807,3.007c-1.559,2.004-2.517,4.651-2.872,7.944H0c0.979-8.899,4.227-15.891,9.748-20.963
	C15.267,2.536,22.188,0,30.513,0c8.323,0,15.089,2.269,20.298,6.81c5.208,4.539,7.811,10.815,7.811,18.83
	c0,3.561-0.446,6.208-1.335,7.945c-0.892,1.735-1.515,2.983-1.869,3.738c-0.356,0.758-1.18,1.894-2.471,3.406
	c-1.292,1.514-2.159,2.494-2.604,2.937c-2.137,2.139-4.163,4.141-6.076,6.011c-1.915,1.869-3.184,3.404-3.806,4.607
	c-0.624,1.2-0.934,3.004-0.934,5.406V67.702z"/>
</svg>
